<svg width="12" height="14" viewBox="0 0 12 14" fill="none" xmlns="http://www.w3.org/2000/svg">
<path d="M10.0001 1.98644C8.93925 0.925578 7.50041 0.32959 6.00012 0.32959C4.49983 0.32959 3.06098 0.925578 2.00012 1.98644C0.93925 3.04731 0.343262 4.48615 0.343262 5.98644C0.343262 7.48674 0.93925 8.92558 2.00012 9.98644L5.51345 13.5064C5.57542 13.5689 5.64916 13.6185 5.7304 13.6524C5.81164 13.6862 5.89877 13.7036 5.98678 13.7036C6.07479 13.7036 6.16193 13.6862 6.24317 13.6524C6.32441 13.6185 6.39814 13.5689 6.46012 13.5064L10.0001 9.95311C11.0566 8.89666 11.65 7.46381 11.65 5.96978C11.65 4.47574 11.0566 3.0429 10.0001 1.98644ZM9.04678 8.99978L6.00012 12.0598L2.95345 8.99978C2.35155 8.39732 1.94177 7.62994 1.77591 6.79464C1.61006 5.95933 1.69557 5.09361 2.02165 4.3069C2.34773 3.52019 2.89973 2.84781 3.60787 2.37476C4.31601 1.90171 5.14851 1.64923 6.00012 1.64923C6.85173 1.64923 7.68422 1.90171 8.39236 2.37476C9.1005 2.84781 9.6525 3.52019 9.97858 4.3069C10.3047 5.09361 10.3902 5.95933 10.2243 6.79464C10.0585 7.62994 9.64869 8.39732 9.04678 8.99978ZM4.00012 3.93978C3.46193 4.47963 3.15971 5.21082 3.15971 5.97311C3.15971 6.7354 3.46193 7.4666 4.00012 8.00644C4.39996 8.40697 4.90917 8.6805 5.46388 8.79271C6.01859 8.90493 6.59408 8.85083 7.11817 8.63721C7.64225 8.42359 8.09157 8.05996 8.40977 7.59194C8.72797 7.12392 8.90087 6.57236 8.90678 6.00644C8.90979 5.62858 8.837 5.25395 8.69272 4.9047C8.54844 4.55546 8.3356 4.23868 8.06678 3.97311C7.80256 3.70283 7.4875 3.48747 7.13973 3.33942C6.79196 3.19137 6.41834 3.11356 6.04038 3.11046C5.66242 3.10737 5.28758 3.17904 4.93743 3.32137C4.58728 3.4637 4.26873 3.67386 4.00012 3.93978ZM7.12678 7.05978C6.87415 7.31627 6.54026 7.47705 6.1822 7.51461C5.82415 7.55218 5.46416 7.4642 5.16379 7.26573C4.86342 7.06725 4.64131 6.77061 4.53545 6.4265C4.42959 6.08239 4.44655 5.7122 4.58342 5.37921C4.72029 5.04623 4.96858 4.77112 5.28584 4.60093C5.6031 4.43075 5.96962 4.37605 6.32274 4.44619C6.67586 4.51633 6.99366 4.70695 7.22179 4.98547C7.44992 5.26398 7.57423 5.61309 7.57345 5.97311C7.56375 6.38462 7.39111 6.77546 7.09345 7.05978H7.12678Z" fill="#21334F"/>
</svg>
