<svg width="16" height="12" viewBox="0 0 16 12" fill="none" xmlns="http://www.w3.org/2000/svg">
<path d="M13.5 0.35498H2.5C1.25927 0.35498 0.25 1.36426 0.25 2.60498V9.39502C0.25 10.6357 1.25927 11.645 2.5 11.645H13.5C14.7407 11.645 15.75 10.6357 15.75 9.39502V2.60498C15.75 1.36426 14.7407 0.35498 13.5 0.35498ZM12.8354 1.85498L12.145 2.4L8.465 5.305C8.19 5.51999 7.80999 5.51999 7.535 5.305L3.98499 2.5L3.16669 1.85498H12.8354ZM13.5 10.145H2.5C2.08643 10.145 1.75 9.80859 1.75 9.39502V2.65235L6.60501 6.48499C7.01502 6.81 7.51001 6.97 8 6.97C8.48999 6.97 8.98499 6.81 9.39499 6.48499L14.25 2.65406V9.39502C14.25 9.80859 13.9136 10.145 13.5 10.145Z" fill="#21334F"/>
</svg>
