<svg width="55" height="51" viewBox="0 0 55 51" fill="none" xmlns="http://www.w3.org/2000/svg">
<path d="M13.869 50.25C13.602 50.2501 13.3376 50.1967 13.0915 50.0929C12.8454 49.9892 12.6225 49.8372 12.4361 49.646C12.2497 49.4547 12.1035 49.228 12.0061 48.9793C11.9087 48.7307 11.8621 48.465 11.869 48.198L12.064 40.751H7.04905C3.22705 40.751 0.498047 37.601 0.498047 33.73V7.593C0.498047 3.82 3.22705 0.75 7.04905 0.75H47.186C51.008 0.75 54.499 3.819 54.499 7.593V33.729C54.499 37.6 51.009 40.75 47.186 40.75H27.762L15.034 49.875C14.6947 50.1191 14.2871 50.2503 13.869 50.25ZM7.05105 4.75C5.40705 4.75 4.50005 5.999 4.50005 7.593V33.729C4.50005 35.368 5.46205 36.75 7.05105 36.75H14.119C14.3862 36.7496 14.6508 36.8029 14.897 36.9066C15.1433 37.0103 15.3662 37.1624 15.5526 37.3538C15.739 37.5453 15.8851 37.7722 15.9822 38.0211C16.0794 38.27 16.1255 38.5359 16.118 38.803L15.974 44.28L25.953 37.126C26.293 36.882 26.7 36.751 27.118 36.751H47.186C48.775 36.751 50.499 35.368 50.499 33.73V7.593C50.499 5.999 48.83 4.75 47.186 4.75H7.05105Z" fill="#21334F"/>
</svg>
