<svg width="55" height="40" viewBox="0 0 55 40" fill="none" xmlns="http://www.w3.org/2000/svg">
<path d="M3.68 39.151C3.208 39.151 2.926 38.985 2.545 38.647C1.082 37.352 0.5 35.651 0.5 33.729V7.593C0.5 3.82 3.229 0.75 7.051 0.75H47.188C51.01 0.75 54.501 3.819 54.501 7.593V8.75C54.501 9.28043 54.2903 9.78914 53.9152 10.1642C53.5401 10.5393 53.0314 10.75 52.501 10.75C51.9706 10.75 51.4619 10.5393 51.0868 10.1642C50.7117 9.78914 50.501 9.28043 50.501 8.75V7.593C50.501 5.999 48.832 4.75 47.188 4.75H7.051C5.407 4.75 4.5 5.999 4.5 7.593V33.729C4.5 34.495 4.6 35.124 5.197 35.653C6.024 36.385 6.006 37.651 5.273 38.477C4.877 38.922 4.232 39.151 3.68 39.151Z" fill="#21334F"/>
</svg>
