<svg width="30" height="30" viewBox="0 0 30 30" fill="none" xmlns="http://www.w3.org/2000/svg">
<path d="M21.6665 3.33317C21.6665 2.4127 22.4127 1.6665 23.3332 1.6665H26.6665C27.587 1.6665 28.3332 2.4127 28.3332 3.33317V9.99984C28.3332 10.9203 27.587 11.6665 26.6665 11.6665H23.3332C22.4127 11.6665 21.6665 10.9203 21.6665 9.99984V3.33317ZM1.6665 19.9998C1.6665 19.0793 2.4127 18.3332 3.33317 18.3332H6.6665C7.58697 18.3332 8.33317 19.0793 8.33317 19.9998V26.6665C8.33317 27.587 7.58697 28.3332 6.6665 28.3332H3.33317C2.4127 28.3332 1.6665 27.587 1.6665 26.6665V19.9998ZM1.6665 3.33317C1.6665 2.4127 2.4127 1.6665 3.33317 1.6665H13.3332C14.2537 1.6665 14.9998 2.4127 14.9998 3.33317V9.99984C14.9998 10.9203 14.2537 11.6665 13.3332 11.6665H3.33317C2.4127 11.6665 1.6665 10.9203 1.6665 9.99984V3.33317ZM14.9998 19.9998C14.9998 19.0793 15.746 18.3332 16.6665 18.3332H26.6665C27.587 18.3332 28.3332 19.0793 28.3332 19.9998V26.6665C28.3332 27.587 27.587 28.3332 26.6665 28.3332H16.6665C15.746 28.3332 14.9998 27.587 14.9998 26.6665V19.9998Z" stroke="black" stroke-width="2" stroke-linecap="round" stroke-linejoin="round"/>
</svg>
