<svg width="16" height="16" viewBox="0 0 16 16" fill="none" xmlns="http://www.w3.org/2000/svg">
<path d="M12.1629 16.0047C8.93219 15.9964 5.83614 14.7095 3.55144 12.4253C1.26674 10.1411 -0.0208098 7.04536 -0.0297852 3.81467C-0.0233282 2.80552 0.38019 1.8395 1.09346 1.1256C1.80674 0.411702 2.77241 0.00733911 3.78155 0V0C4.45207 0.00201964 5.11012 0.181424 5.68888 0.52C5.8745 0.627338 6.04931 0.752363 6.21088 0.893333C6.32682 0.995953 6.40342 1.13573 6.42755 1.28867L7.07888 5.406C7.10373 5.56279 7.07182 5.72331 6.98888 5.85867C6.77545 6.20399 6.50494 6.51056 6.18888 6.76533C6.83526 8.07924 7.89831 9.14229 9.21222 9.78867C9.46677 9.47265 9.77312 9.20214 10.1182 8.98867C10.2533 8.90432 10.4144 8.87209 10.5715 8.898L14.6889 9.55C14.8417 9.57384 14.9814 9.65051 15.0835 9.76667C15.2226 9.92612 15.3465 10.0982 15.4535 10.2807C15.7936 10.8588 15.9746 11.5166 15.9782 12.1874C15.9817 12.8581 15.8076 13.5178 15.4737 14.0995C15.1397 14.6811 14.6577 15.164 14.0767 15.4991C13.4956 15.8342 12.8363 16.0096 12.1655 16.0073L12.1629 16.0047ZM3.78555 1.33333C3.12867 1.33857 2.5002 1.60192 2.03582 2.06655C1.57145 2.53117 1.30843 3.15978 1.30355 3.81667C1.31199 6.69337 2.45868 9.44979 4.49308 11.4837C6.52747 13.5176 9.28418 14.6636 12.1609 14.6713C12.8176 14.6661 13.446 14.4027 13.9101 13.938C14.3743 13.4734 14.637 12.8448 14.6415 12.188C14.6408 11.7544 14.5236 11.3289 14.3022 10.956C14.2735 10.9087 14.2455 10.864 14.2175 10.8227L10.6235 10.254C10.3792 10.4481 10.1738 10.6868 10.0182 10.9573C9.93769 11.0948 9.81057 11.1989 9.6599 11.2508C9.50923 11.3026 9.34497 11.2988 9.19688 11.24C8.18805 10.8398 7.2717 10.2375 6.50415 9.4702C5.7366 8.70288 5.13406 7.78672 4.73355 6.778C4.67492 6.62999 4.67118 6.46589 4.72303 6.31536C4.77487 6.16484 4.87887 6.03784 5.01622 5.95733C5.28662 5.80128 5.52523 5.5957 5.71955 5.35133L5.15222 1.75733C5.10955 1.72867 5.06355 1.69867 5.01222 1.668C4.64029 1.44952 4.2169 1.33401 3.78555 1.33333Z" fill="#21334F"/>
</svg>
