<svg width="23" height="24" viewBox="0 0 23 24" fill="none" xmlns="http://www.w3.org/2000/svg">
<path d="M21.0862 14.672C20.7409 14.3284 20.4671 13.9198 20.2807 13.4697C20.0943 13.0197 19.999 12.5371 20.0002 12.05V9C20.0002 6.61305 19.052 4.32387 17.3642 2.63604C15.6764 0.948211 13.3872 0 11.0002 0C8.61329 0 6.32411 0.948211 4.63628 2.63604C2.94845 4.32387 2.00024 6.61305 2.00024 9V12.05C2.00151 12.5371 1.90619 13.0197 1.71978 13.4697C1.53337 13.9198 1.25958 14.3284 0.914241 14.672C0.477713 15.1085 0.180428 15.6646 0.0599837 16.2701C-0.0604606 16.8755 0.00134595 17.5031 0.237587 18.0734C0.473828 18.6437 0.873891 19.1312 1.38718 19.4741C1.90047 19.817 2.50393 20 3.12124 20H6.10024C6.32976 21.1303 6.94297 22.1465 7.83598 22.8764C8.729 23.6063 9.84689 24.005 11.0002 24.005C12.1536 24.005 13.2715 23.6063 14.1645 22.8764C15.0575 22.1465 15.6707 21.1303 15.9002 20H18.8802C19.4975 20 20.101 19.817 20.6143 19.4741C21.1276 19.1312 21.5277 18.6437 21.7639 18.0734C22.0001 17.5031 22.0619 16.8755 21.9415 16.2701C21.8211 15.6646 21.5238 15.1085 21.0872 14.672H21.0862ZM11.0002 22C10.382 21.9974 9.77961 21.8039 9.27554 21.4459C8.77147 21.0879 8.39032 20.5829 8.18424 20H13.8162C13.6102 20.5829 13.229 21.0879 12.7249 21.4459C12.2209 21.8039 11.6185 21.9974 11.0002 22ZM18.8792 18H3.12124C2.89943 18.0001 2.68257 17.9345 2.4981 17.8113C2.31363 17.6881 2.16984 17.513 2.08494 17.3081C2.00004 17.1032 1.97784 16.8777 2.02115 16.6601C2.06446 16.4426 2.17133 16.2428 2.32824 16.086C2.85989 15.5572 3.2814 14.9282 3.5684 14.2354C3.85539 13.5427 4.00217 12.7999 4.00024 12.05V9C4.00024 7.14348 4.73774 5.36301 6.05049 4.05025C7.36325 2.7375 9.14373 2 11.0002 2C12.8568 2 14.6372 2.7375 15.95 4.05025C17.2627 5.36301 18.0002 7.14348 18.0002 9V12.05C17.9983 12.7999 18.1451 13.5427 18.4321 14.2354C18.7191 14.9282 19.1406 15.5572 19.6722 16.086C19.8292 16.2428 19.936 16.4426 19.9793 16.6601C20.0226 16.8777 20.0004 17.1032 19.9155 17.3081C19.8306 17.513 19.6869 17.6881 19.5024 17.8113C19.3179 17.9345 19.101 18.0001 18.8792 18Z" fill="#21334F"/>
</svg>
