<svg width="473" height="136" viewBox="0 0 473 136" fill="none" xmlns="http://www.w3.org/2000/svg">
<path d="M12.8409 31H2.52841V1.90909H12.9261C15.8523 1.90909 18.3712 2.49148 20.483 3.65625C22.5947 4.81155 24.2188 6.47348 25.3551 8.64205C26.5009 10.8106 27.0739 13.4053 27.0739 16.4261C27.0739 19.4564 26.5009 22.0606 25.3551 24.2386C24.2188 26.4167 22.5852 28.0881 20.4545 29.2528C18.3333 30.4176 15.7955 31 12.8409 31ZM8.67898 25.7301H12.5852C14.4034 25.7301 15.9328 25.4081 17.1733 24.7642C18.4233 24.1108 19.3608 23.1023 19.9858 21.7386C20.6203 20.3655 20.9375 18.5947 20.9375 16.4261C20.9375 14.2765 20.6203 12.5199 19.9858 11.1562C19.3608 9.79261 18.428 8.78883 17.1875 8.14489C15.947 7.50095 14.4176 7.17898 12.5994 7.17898H8.67898V25.7301ZM41.4595 31.4261C39.2152 31.4261 37.2834 30.9716 35.6641 30.0625C34.0542 29.1439 32.8137 27.8466 31.9425 26.1705C31.0713 24.4848 30.6357 22.4915 30.6357 20.1903C30.6357 17.946 31.0713 15.9763 31.9425 14.2812C32.8137 12.5862 34.04 11.2652 35.6214 10.3182C37.2124 9.37121 39.0779 8.89773 41.218 8.89773C42.6574 8.89773 43.9974 9.12973 45.2379 9.59375C46.4879 10.0483 47.5769 10.7348 48.505 11.6534C49.4425 12.572 50.1716 13.7273 50.6925 15.1193C51.2133 16.5019 51.4737 18.1212 51.4737 19.9773V21.6392H33.0504V17.8892H45.7777C45.7777 17.018 45.5883 16.2462 45.2095 15.5739C44.8307 14.9015 44.3052 14.3759 43.6328 13.9972C42.9699 13.6089 42.1982 13.4148 41.3175 13.4148C40.3989 13.4148 39.5845 13.6278 38.8743 14.054C38.1735 14.4706 37.6243 15.0341 37.2266 15.7443C36.8288 16.4451 36.6252 17.2263 36.6158 18.0881V21.6534C36.6158 22.733 36.8146 23.6657 37.2124 24.4517C37.6196 25.2377 38.1925 25.8438 38.9311 26.2699C39.6697 26.696 40.5457 26.9091 41.5589 26.9091C42.2313 26.9091 42.8468 26.8144 43.4055 26.625C43.9643 26.4356 44.4425 26.1515 44.8402 25.7727C45.2379 25.3939 45.541 24.9299 45.7493 24.3807L51.3459 24.75C51.0618 26.0947 50.4794 27.2689 49.5987 28.2727C48.7275 29.267 47.6006 30.0436 46.218 30.6023C44.8449 31.1515 43.2588 31.4261 41.4595 31.4261ZM61.4737 1.90909V31H55.4226V1.90909H61.4737ZM66.321 31V9.18182H72.3722V31H66.321ZM69.3608 6.36932C68.4612 6.36932 67.6894 6.07102 67.0455 5.47443C66.411 4.86837 66.0938 4.14394 66.0938 3.30114C66.0938 2.4678 66.411 1.75284 67.0455 1.15625C67.6894 0.550188 68.4612 0.247158 69.3608 0.247158C70.2604 0.247158 71.0275 0.550188 71.6619 1.15625C72.3059 1.75284 72.6278 2.4678 72.6278 3.30114C72.6278 4.14394 72.3059 4.86837 71.6619 5.47443C71.0275 6.07102 70.2604 6.36932 69.3608 6.36932ZM97.5604 9.18182L89.9325 31H83.1143L75.4865 9.18182H81.8786L86.4098 24.7926H86.6371L91.1541 9.18182H97.5604ZM109.897 31.4261C107.653 31.4261 105.721 30.9716 104.102 30.0625C102.492 29.1439 101.251 27.8466 100.38 26.1705C99.5088 24.4848 99.0732 22.4915 99.0732 20.1903C99.0732 17.946 99.5088 15.9763 100.38 14.2812C101.251 12.5862 102.478 11.2652 104.059 10.3182C105.65 9.37121 107.515 8.89773 109.656 8.89773C111.095 8.89773 112.435 9.12973 113.675 9.59375C114.925 10.0483 116.014 10.7348 116.942 11.6534C117.88 12.572 118.609 13.7273 119.13 15.1193C119.651 16.5019 119.911 18.1212 119.911 19.9773V21.6392H101.488V17.8892H114.215C114.215 17.018 114.026 16.2462 113.647 15.5739C113.268 14.9015 112.743 14.3759 112.07 13.9972C111.407 13.6089 110.636 13.4148 109.755 13.4148C108.836 13.4148 108.022 13.6278 107.312 14.054C106.611 14.4706 106.062 15.0341 105.664 15.7443C105.266 16.4451 105.063 17.2263 105.053 18.0881V21.6534C105.053 22.733 105.252 23.6657 105.65 24.4517C106.057 25.2377 106.63 25.8438 107.369 26.2699C108.107 26.696 108.983 26.9091 109.996 26.9091C110.669 26.9091 111.284 26.8144 111.843 26.625C112.402 26.4356 112.88 26.1515 113.278 25.7727C113.675 25.3939 113.978 24.9299 114.187 24.3807L119.783 24.75C119.499 26.0947 118.917 27.2689 118.036 28.2727C117.165 29.267 116.038 30.0436 114.656 30.6023C113.282 31.1515 111.696 31.4261 109.897 31.4261ZM123.86 31V9.18182H129.727V12.9886H129.954C130.352 11.6345 131.019 10.6117 131.957 9.92045C132.894 9.2197 133.974 8.86932 135.195 8.86932C135.498 8.86932 135.825 8.88826 136.175 8.92614C136.526 8.96402 136.834 9.0161 137.099 9.08239V14.4517C136.815 14.3665 136.422 14.2907 135.92 14.2244C135.418 14.1581 134.959 14.125 134.542 14.125C133.652 14.125 132.856 14.3191 132.156 14.7074C131.464 15.0862 130.915 15.6165 130.508 16.2983C130.11 16.9801 129.911 17.7661 129.911 18.6562V31H123.86ZM144.627 39.1818C143.86 39.1818 143.14 39.1203 142.468 38.9972C141.805 38.8835 141.256 38.7367 140.82 38.5568L142.184 34.0398C142.894 34.2576 143.533 34.3759 144.102 34.3949C144.679 34.4138 145.176 34.2813 145.593 33.9972C146.019 33.7131 146.365 33.2301 146.63 32.5483L146.985 31.625L139.158 9.18182H145.522L150.039 25.2045H150.266L154.826 9.18182H161.232L152.752 33.358C152.345 34.5322 151.791 35.5549 151.09 36.4261C150.399 37.3068 149.523 37.9839 148.462 38.4574C147.402 38.9403 146.123 39.1818 144.627 39.1818ZM191.74 15.4034L186.2 15.7443C186.106 15.2708 185.902 14.8447 185.589 14.4659C185.277 14.0777 184.865 13.7699 184.354 13.5426C183.852 13.3059 183.25 13.1875 182.55 13.1875C181.612 13.1875 180.821 13.3864 180.178 13.7841C179.534 14.1723 179.212 14.6932 179.212 15.3466C179.212 15.8674 179.42 16.3078 179.837 16.6676C180.253 17.0275 180.968 17.3163 181.982 17.5341L185.93 18.3295C188.052 18.7652 189.633 19.4659 190.675 20.4318C191.716 21.3977 192.237 22.6667 192.237 24.2386C192.237 25.6686 191.816 26.9233 190.973 28.0028C190.14 29.0824 188.994 29.9252 187.536 30.5312C186.087 31.1278 184.415 31.4261 182.521 31.4261C179.633 31.4261 177.332 30.8248 175.618 29.6222C173.913 28.41 172.914 26.7623 172.621 24.679L178.572 24.3665C178.752 25.2472 179.188 25.9195 179.879 26.3835C180.571 26.8381 181.456 27.0653 182.536 27.0653C183.596 27.0653 184.448 26.8617 185.092 26.4545C185.746 26.0379 186.077 25.5028 186.087 24.8494C186.077 24.3002 185.845 23.8504 185.391 23.5C184.936 23.1402 184.235 22.8655 183.288 22.6761L179.51 21.9233C177.379 21.4972 175.793 20.7585 174.751 19.7074C173.719 18.6562 173.203 17.3163 173.203 15.6875C173.203 14.286 173.582 13.0786 174.339 12.0653C175.107 11.0521 176.181 10.2708 177.564 9.72159C178.956 9.17235 180.585 8.89773 182.45 8.89773C185.206 8.89773 187.375 9.48011 188.956 10.6449C190.547 11.8097 191.475 13.3958 191.74 15.4034ZM205.991 31.4261C203.746 31.4261 201.815 30.9716 200.195 30.0625C198.585 29.1439 197.345 27.8466 196.474 26.1705C195.603 24.4848 195.167 22.4915 195.167 20.1903C195.167 17.946 195.603 15.9763 196.474 14.2812C197.345 12.5862 198.571 11.2652 200.153 10.3182C201.744 9.37121 203.609 8.89773 205.749 8.89773C207.189 8.89773 208.529 9.12973 209.769 9.59375C211.019 10.0483 212.108 10.7348 213.036 11.6534C213.974 12.572 214.703 13.7273 215.224 15.1193C215.745 16.5019 216.005 18.1212 216.005 19.9773V21.6392H197.582V17.8892H210.309C210.309 17.018 210.12 16.2462 209.741 15.5739C209.362 14.9015 208.836 14.3759 208.164 13.9972C207.501 13.6089 206.729 13.4148 205.849 13.4148C204.93 13.4148 204.116 13.6278 203.406 14.054C202.705 14.4706 202.156 15.0341 201.758 15.7443C201.36 16.4451 201.156 17.2263 201.147 18.0881V21.6534C201.147 22.733 201.346 23.6657 201.744 24.4517C202.151 25.2377 202.724 25.8438 203.462 26.2699C204.201 26.696 205.077 26.9091 206.09 26.9091C206.763 26.9091 207.378 26.8144 207.937 26.625C208.496 26.4356 208.974 26.1515 209.371 25.7727C209.769 25.3939 210.072 24.9299 210.281 24.3807L215.877 24.75C215.593 26.0947 215.011 27.2689 214.13 28.2727C213.259 29.267 212.132 30.0436 210.749 30.6023C209.376 31.1515 207.79 31.4261 205.991 31.4261ZM219.954 31V9.18182H225.82V12.9886H226.048C226.445 11.6345 227.113 10.6117 228.05 9.92045C228.988 9.2197 230.067 8.86932 231.289 8.86932C231.592 8.86932 231.919 8.88826 232.269 8.92614C232.62 8.96402 232.927 9.0161 233.192 9.08239V14.4517C232.908 14.3665 232.515 14.2907 232.013 14.2244C231.512 14.1581 231.052 14.125 230.636 14.125C229.746 14.125 228.95 14.3191 228.249 14.7074C227.558 15.0862 227.009 15.6165 226.602 16.2983C226.204 16.9801 226.005 17.7661 226.005 18.6562V31H219.954ZM257.326 9.18182L249.698 31H242.88L235.252 9.18182H241.644L246.175 24.7926H246.403L250.92 9.18182H257.326ZM260.423 31V9.18182H266.474V31H260.423ZM263.462 6.36932C262.563 6.36932 261.791 6.07102 261.147 5.47443C260.513 4.86837 260.195 4.14394 260.195 3.30114C260.195 2.4678 260.513 1.75284 261.147 1.15625C261.791 0.550188 262.563 0.247158 263.462 0.247158C264.362 0.247158 265.129 0.550188 265.763 1.15625C266.407 1.75284 266.729 2.4678 266.729 3.30114C266.729 4.14394 266.407 4.86837 265.763 5.47443C265.129 6.07102 264.362 6.36932 263.462 6.36932ZM281.179 31.4261C278.944 31.4261 277.022 30.9527 275.412 30.0057C273.812 29.0492 272.58 27.7235 271.719 26.0284C270.866 24.3333 270.44 22.3826 270.44 20.1761C270.44 17.9413 270.871 15.9811 271.733 14.2955C272.604 12.6004 273.84 11.2794 275.44 10.3324C277.041 9.37595 278.944 8.89773 281.151 8.89773C283.054 8.89773 284.721 9.24337 286.151 9.93466C287.58 10.6259 288.712 11.5966 289.545 12.8466C290.379 14.0966 290.838 15.5644 290.923 17.25H285.213C285.052 16.161 284.626 15.285 283.935 14.6222C283.253 13.9498 282.358 13.6136 281.25 13.6136C280.312 13.6136 279.493 13.8693 278.793 14.3807C278.101 14.8826 277.562 15.6165 277.173 16.5824C276.785 17.5483 276.591 18.7178 276.591 20.0909C276.591 21.483 276.78 22.6667 277.159 23.642C277.547 24.6174 278.092 25.3608 278.793 25.8722C279.493 26.3835 280.312 26.6392 281.25 26.6392C281.941 26.6392 282.562 26.4972 283.111 26.2131C283.67 25.929 284.129 25.517 284.489 24.9773C284.858 24.428 285.099 23.7699 285.213 23.0028H290.923C290.829 24.6695 290.374 26.1373 289.56 27.4062C288.755 28.6657 287.642 29.6506 286.222 30.3608C284.801 31.071 283.12 31.4261 281.179 31.4261ZM304.741 31.4261C302.496 31.4261 300.565 30.9716 298.945 30.0625C297.335 29.1439 296.095 27.8466 295.224 26.1705C294.353 24.4848 293.917 22.4915 293.917 20.1903C293.917 17.946 294.353 15.9763 295.224 14.2812C296.095 12.5862 297.321 11.2652 298.903 10.3182C300.494 9.37121 302.359 8.89773 304.499 8.89773C305.939 8.89773 307.279 9.12973 308.519 9.59375C309.769 10.0483 310.858 10.7348 311.786 11.6534C312.724 12.572 313.453 13.7273 313.974 15.1193C314.495 16.5019 314.755 18.1212 314.755 19.9773V21.6392H296.332V17.8892H309.059C309.059 17.018 308.87 16.2462 308.491 15.5739C308.112 14.9015 307.586 14.3759 306.914 13.9972C306.251 13.6089 305.479 13.4148 304.599 13.4148C303.68 13.4148 302.866 13.6278 302.156 14.054C301.455 14.4706 300.906 15.0341 300.508 15.7443C300.11 16.4451 299.906 17.2263 299.897 18.0881V21.6534C299.897 22.733 300.096 23.6657 300.494 24.4517C300.901 25.2377 301.474 25.8438 302.212 26.2699C302.951 26.696 303.827 26.9091 304.84 26.9091C305.513 26.9091 306.128 26.8144 306.687 26.625C307.246 26.4356 307.724 26.1515 308.121 25.7727C308.519 25.3939 308.822 24.9299 309.031 24.3807L314.627 24.75C314.343 26.0947 313.761 27.2689 312.88 28.2727C312.009 29.267 310.882 30.0436 309.499 30.6023C308.126 31.1515 306.54 31.4261 304.741 31.4261ZM327.962 9.18182H334.013V32.0795C334.013 33.7652 333.681 35.1288 333.018 36.1705C332.356 37.2121 331.404 37.9744 330.163 38.4574C328.932 38.9403 327.46 39.1818 325.746 39.1818C325.537 39.1818 325.339 39.1771 325.149 39.1676C324.95 39.1676 324.742 39.1629 324.524 39.1534V34.4233C324.685 34.4328 324.827 34.4375 324.95 34.4375C325.064 34.447 325.187 34.4517 325.32 34.4517C326.295 34.4517 326.977 34.2434 327.365 33.8267C327.763 33.4195 327.962 32.804 327.962 31.9801V9.18182ZM330.973 6.36932C330.083 6.36932 329.316 6.07102 328.672 5.47443C328.028 4.86837 327.706 4.14394 327.706 3.30114C327.706 2.4678 328.028 1.75284 328.672 1.15625C329.316 0.550188 330.083 0.247158 330.973 0.247158C331.882 0.247158 332.654 0.550188 333.288 1.15625C333.932 1.75284 334.254 2.4678 334.254 3.30114C334.254 4.14394 333.932 4.86837 333.288 5.47443C332.654 6.07102 331.882 6.36932 330.973 6.36932ZM352.852 21.7102V9.18182H358.903V31H353.093V27.0369H352.866C352.373 28.3153 351.554 29.3428 350.408 30.1193C349.272 30.8958 347.885 31.2841 346.246 31.2841C344.788 31.2841 343.505 30.9527 342.397 30.2898C341.289 29.6269 340.423 28.6847 339.798 27.4631C339.182 26.2415 338.87 24.7784 338.86 23.0739V9.18182H344.911V21.9943C344.921 23.2822 345.266 24.3002 345.948 25.0483C346.63 25.7964 347.544 26.1705 348.69 26.1705C349.419 26.1705 350.101 26.0047 350.735 25.6733C351.37 25.3324 351.881 24.8305 352.269 24.1676C352.667 23.5047 352.861 22.6856 352.852 21.7102ZM381.896 15.4034L376.357 15.7443C376.262 15.2708 376.058 14.8447 375.746 14.4659C375.433 14.0777 375.021 13.7699 374.51 13.5426C374.008 13.3059 373.407 13.1875 372.706 13.1875C371.768 13.1875 370.978 13.3864 370.334 13.7841C369.69 14.1723 369.368 14.6932 369.368 15.3466C369.368 15.8674 369.576 16.3078 369.993 16.6676C370.41 17.0275 371.125 17.3163 372.138 17.5341L376.087 18.3295C378.208 18.7652 379.789 19.4659 380.831 20.4318C381.873 21.3977 382.393 22.6667 382.393 24.2386C382.393 25.6686 381.972 26.9233 381.129 28.0028C380.296 29.0824 379.15 29.9252 377.692 30.5312C376.243 31.1278 374.571 31.4261 372.678 31.4261C369.789 31.4261 367.488 30.8248 365.774 29.6222C364.07 28.41 363.071 26.7623 362.777 24.679L368.729 24.3665C368.909 25.2472 369.344 25.9195 370.036 26.3835C370.727 26.8381 371.612 27.0653 372.692 27.0653C373.752 27.0653 374.605 26.8617 375.249 26.4545C375.902 26.0379 376.233 25.5028 376.243 24.8494C376.233 24.3002 376.001 23.8504 375.547 23.5C375.092 23.1402 374.392 22.8655 373.445 22.6761L369.666 21.9233C367.536 21.4972 365.949 20.7585 364.908 19.7074C363.875 18.6562 363.359 17.3163 363.359 15.6875C363.359 14.286 363.738 13.0786 364.496 12.0653C365.263 11.0521 366.338 10.2708 367.72 9.72159C369.112 9.17235 370.741 8.89773 372.607 8.89773C375.362 8.89773 377.531 9.48011 379.112 10.6449C380.703 11.8097 381.631 13.3958 381.896 15.4034ZM397.809 9.18182V13.7273H384.67V9.18182H397.809ZM387.653 3.95455H393.704V24.2955C393.704 24.8542 393.789 25.2898 393.96 25.6023C394.13 25.9053 394.367 26.1184 394.67 26.2415C394.982 26.3646 395.342 26.4261 395.749 26.4261C396.033 26.4261 396.317 26.4025 396.602 26.3551C396.886 26.2983 397.103 26.2557 397.255 26.2273L398.207 30.7301C397.904 30.8248 397.478 30.9337 396.928 31.0568C396.379 31.1894 395.711 31.2699 394.925 31.2983C393.467 31.3551 392.189 31.161 391.09 30.7159C390.001 30.2708 389.154 29.5795 388.548 28.642C387.942 27.7045 387.643 26.5208 387.653 25.0909V3.95455ZM420.838 39.6364C418.878 39.6364 417.197 39.3665 415.795 38.8267C414.403 38.2964 413.295 37.572 412.472 36.6534C411.648 35.7348 411.113 34.7027 410.866 33.5568L416.463 32.804C416.634 33.2396 416.903 33.6468 417.273 34.0256C417.642 34.4044 418.13 34.7074 418.736 34.9347C419.351 35.1714 420.099 35.2898 420.98 35.2898C422.296 35.2898 423.381 34.9678 424.233 34.3239C425.095 33.6894 425.526 32.6241 425.526 31.1278V27.1364H425.27C425.005 27.7424 424.607 28.3153 424.077 28.8551C423.546 29.3949 422.865 29.8352 422.031 30.1761C421.198 30.517 420.204 30.6875 419.048 30.6875C417.41 30.6875 415.919 30.3087 414.574 29.5511C413.239 28.7841 412.173 27.6146 411.378 26.0426C410.592 24.4612 410.199 22.4631 410.199 20.0483C410.199 17.5767 410.601 15.5123 411.406 13.8551C412.211 12.1979 413.281 10.9574 414.616 10.1335C415.961 9.30966 417.434 8.89773 419.034 8.89773C420.256 8.89773 421.278 9.10606 422.102 9.52273C422.926 9.92992 423.589 10.4413 424.091 11.0568C424.602 11.6629 424.995 12.2595 425.27 12.8466H425.497V9.18182H431.506V31.2131C431.506 33.0691 431.051 34.6222 430.142 35.8722C429.233 37.1222 427.973 38.0597 426.364 38.6847C424.763 39.3191 422.921 39.6364 420.838 39.6364ZM420.966 26.142C421.941 26.142 422.765 25.9006 423.438 25.4176C424.119 24.9252 424.64 24.2244 425 23.3153C425.369 22.3968 425.554 21.2983 425.554 20.0199C425.554 18.7415 425.374 17.6335 425.014 16.696C424.654 15.7491 424.134 15.0152 423.452 14.4943C422.77 13.9735 421.941 13.7131 420.966 13.7131C419.972 13.7131 419.134 13.983 418.452 14.5227C417.77 15.053 417.254 15.7917 416.903 16.7386C416.553 17.6856 416.378 18.7794 416.378 20.0199C416.378 21.2794 416.553 22.3684 416.903 23.2869C417.263 24.196 417.779 24.9015 418.452 25.4034C419.134 25.8958 419.972 26.142 420.966 26.142ZM446.179 31.4261C443.973 31.4261 442.064 30.9574 440.455 30.0199C438.854 29.0729 437.618 27.7566 436.747 26.071C435.876 24.3759 435.44 22.411 435.44 20.1761C435.44 17.9223 435.876 15.9527 436.747 14.267C437.618 12.572 438.854 11.2557 440.455 10.3182C442.064 9.37121 443.973 8.89773 446.179 8.89773C448.385 8.89773 450.289 9.37121 451.889 10.3182C453.499 11.2557 454.74 12.572 455.611 14.267C456.482 15.9527 456.918 17.9223 456.918 20.1761C456.918 22.411 456.482 24.3759 455.611 26.071C454.74 27.7566 453.499 29.0729 451.889 30.0199C450.289 30.9574 448.385 31.4261 446.179 31.4261ZM446.207 26.7386C447.211 26.7386 448.049 26.4545 448.722 25.8864C449.394 25.3087 449.901 24.5227 450.241 23.5284C450.592 22.5341 450.767 21.4025 450.767 20.1335C450.767 18.8646 450.592 17.733 450.241 16.7386C449.901 15.7443 449.394 14.9583 448.722 14.3807C448.049 13.803 447.211 13.5142 446.207 13.5142C445.194 13.5142 444.342 13.803 443.651 14.3807C442.969 14.9583 442.453 15.7443 442.102 16.7386C441.761 17.733 441.591 18.8646 441.591 20.1335C441.591 21.4025 441.761 22.5341 442.102 23.5284C442.453 24.5227 442.969 25.3087 443.651 25.8864C444.342 26.4545 445.194 26.7386 446.207 26.7386ZM472.457 9.18182V13.7273H459.318V9.18182H472.457ZM462.301 3.95455H468.352V24.2955C468.352 24.8542 468.438 25.2898 468.608 25.6023C468.778 25.9053 469.015 26.1184 469.318 26.2415C469.631 26.3646 469.991 26.4261 470.398 26.4261C470.682 26.4261 470.966 26.4025 471.25 26.3551C471.534 26.2983 471.752 26.2557 471.903 26.2273L472.855 30.7301C472.552 30.8248 472.126 30.9337 471.577 31.0568C471.027 31.1894 470.36 31.2699 469.574 31.2983C468.116 31.3551 466.837 31.161 465.739 30.7159C464.65 30.2708 463.802 29.5795 463.196 28.642C462.59 27.7045 462.292 26.5208 462.301 25.0909V3.95455ZM12.358 79.4261C10.1136 79.4261 8.18182 78.9716 6.5625 78.0625C4.95265 77.1439 3.71212 75.8466 2.84091 74.1705C1.9697 72.4848 1.53409 70.4915 1.53409 68.1903C1.53409 65.946 1.9697 63.9763 2.84091 62.2812C3.71212 60.5862 4.93845 59.2652 6.51989 58.3182C8.1108 57.3712 9.97633 56.8977 12.1165 56.8977C13.5559 56.8977 14.8958 57.1297 16.1364 57.5938C17.3864 58.0483 18.4754 58.7348 19.4034 59.6534C20.3409 60.572 21.0701 61.7273 21.5909 63.1193C22.1117 64.5019 22.3722 66.1212 22.3722 67.9773V69.6392H3.94886V65.8892H16.6761C16.6761 65.018 16.4867 64.2462 16.108 63.5739C15.7292 62.9015 15.2036 62.3759 14.5312 61.9972C13.8684 61.6089 13.0966 61.4148 12.2159 61.4148C11.2973 61.4148 10.483 61.6278 9.77273 62.054C9.07197 62.4706 8.52273 63.0341 8.125 63.7443C7.72727 64.4451 7.52367 65.2263 7.5142 66.0881V69.6534C7.5142 70.733 7.71307 71.6657 8.1108 72.4517C8.51799 73.2377 9.09091 73.8438 9.82955 74.2699C10.5682 74.696 11.4441 74.9091 12.4574 74.9091C13.1297 74.9091 13.7453 74.8144 14.304 74.625C14.8627 74.4356 15.3409 74.1515 15.7386 73.7727C16.1364 73.3939 16.4394 72.9299 16.6477 72.3807L22.2443 72.75C21.9602 74.0947 21.3778 75.2689 20.4972 76.2727C19.6259 77.267 18.4991 78.0436 17.1165 78.6023C15.7434 79.1515 14.1572 79.4261 12.358 79.4261ZM32.5426 79.4119C31.1506 79.4119 29.91 79.1705 28.821 78.6875C27.732 78.1951 26.8703 77.4706 26.2358 76.5142C25.6108 75.5483 25.2983 74.3456 25.2983 72.9062C25.2983 71.6941 25.5208 70.6761 25.9659 69.8523C26.411 69.0284 27.017 68.3655 27.7841 67.8636C28.5511 67.3617 29.4223 66.983 30.3977 66.7273C31.3826 66.4716 32.4148 66.2917 33.4943 66.1875C34.7633 66.0549 35.786 65.9318 36.5625 65.8182C37.339 65.6951 37.9025 65.5152 38.2528 65.2784C38.6032 65.0417 38.7784 64.6913 38.7784 64.2273V64.142C38.7784 63.2424 38.4943 62.5464 37.9261 62.054C37.3674 61.5616 36.572 61.3153 35.5398 61.3153C34.4508 61.3153 33.5843 61.5568 32.9403 62.0398C32.2964 62.5133 31.8703 63.1098 31.6619 63.8295L26.0653 63.375C26.3494 62.0492 26.9081 60.9034 27.7415 59.9375C28.5748 58.9621 29.6496 58.214 30.9659 57.6932C32.2917 57.1629 33.8258 56.8977 35.5682 56.8977C36.7803 56.8977 37.9403 57.0398 39.0483 57.3239C40.1657 57.608 41.1553 58.0483 42.017 58.6449C42.8883 59.2415 43.5748 60.0085 44.0767 60.946C44.5786 61.8741 44.8295 62.9867 44.8295 64.2841V79H39.0909V75.9744H38.9205C38.5701 76.6562 38.1013 77.2576 37.5142 77.7784C36.9271 78.2898 36.2216 78.6922 35.3977 78.9858C34.5739 79.2699 33.6222 79.4119 32.5426 79.4119ZM34.2756 75.2358C35.1657 75.2358 35.9517 75.0606 36.6335 74.7102C37.3153 74.3504 37.8504 73.8674 38.2386 73.2614C38.6269 72.6553 38.821 71.9687 38.821 71.2017V68.8864C38.6316 69.0095 38.3712 69.1231 38.0398 69.2273C37.7178 69.322 37.3532 69.4119 36.946 69.4972C36.5388 69.5729 36.1316 69.6439 35.7244 69.7102C35.3172 69.767 34.9479 69.8191 34.6165 69.8665C33.9063 69.9706 33.286 70.1364 32.7557 70.3636C32.2254 70.5909 31.8134 70.8987 31.5199 71.2869C31.2263 71.6657 31.0795 72.1392 31.0795 72.7074C31.0795 73.5312 31.3778 74.161 31.9744 74.5966C32.5805 75.0227 33.3475 75.2358 34.2756 75.2358ZM67.6776 63.4034L62.1378 63.7443C62.0431 63.2708 61.8395 62.8447 61.527 62.4659C61.2145 62.0777 60.8026 61.7699 60.2912 61.5426C59.7893 61.3059 59.188 61.1875 58.4872 61.1875C57.5497 61.1875 56.759 61.3864 56.1151 61.7841C55.4711 62.1723 55.1491 62.6932 55.1491 63.3466C55.1491 63.8674 55.3575 64.3078 55.7741 64.6676C56.1908 65.0275 56.9058 65.3163 57.919 65.5341L61.8679 66.3295C63.9891 66.7652 65.5705 67.4659 66.6122 68.4318C67.6539 69.3977 68.1747 70.6667 68.1747 72.2386C68.1747 73.6686 67.7533 74.9233 66.9105 76.0028C66.0772 77.0824 64.9313 77.9252 63.473 78.5312C62.0241 79.1278 60.3527 79.4261 58.4588 79.4261C55.5705 79.4261 53.2694 78.8248 51.5554 77.6222C49.8509 76.41 48.8518 74.7623 48.5582 72.679L54.5099 72.3665C54.6899 73.2472 55.1255 73.9195 55.8168 74.3835C56.508 74.8381 57.3935 75.0653 58.473 75.0653C59.5336 75.0653 60.3859 74.8617 61.0298 74.4545C61.6832 74.0379 62.0147 73.5028 62.0241 72.8494C62.0147 72.3002 61.7827 71.8504 61.3281 71.5C60.8736 71.1402 60.1728 70.8655 59.2259 70.6761L55.4474 69.9233C53.3168 69.4972 51.7306 68.7585 50.6889 67.7074C49.6567 66.6562 49.1406 65.3163 49.1406 63.6875C49.1406 62.286 49.5194 61.0786 50.277 60.0653C51.044 59.0521 52.1188 58.2708 53.5014 57.7216C54.8935 57.1723 56.5223 56.8977 58.3878 56.8977C61.1435 56.8977 63.312 57.4801 64.8935 58.6449C66.4844 59.8097 67.4124 61.3958 67.6776 63.4034ZM71.9851 79V57.1818H78.0362V79H71.9851ZM75.0249 54.3693C74.1252 54.3693 73.3535 54.071 72.7095 53.4744C72.075 52.8684 71.7578 52.1439 71.7578 51.3011C71.7578 50.4678 72.075 49.7528 72.7095 49.1562C73.3535 48.5502 74.1252 48.2472 75.0249 48.2472C75.9245 48.2472 76.6915 48.5502 77.326 49.1562C77.9699 49.7528 78.2919 50.4678 78.2919 51.3011C78.2919 52.1439 77.9699 52.8684 77.326 53.4744C76.6915 54.071 75.9245 54.3693 75.0249 54.3693ZM92.8267 79.4261C90.5824 79.4261 88.6506 78.9716 87.0312 78.0625C85.4214 77.1439 84.1809 75.8466 83.3097 74.1705C82.4384 72.4848 82.0028 70.4915 82.0028 68.1903C82.0028 65.946 82.4384 63.9763 83.3097 62.2812C84.1809 60.5862 85.4072 59.2652 86.9886 58.3182C88.5795 57.3712 90.4451 56.8977 92.5852 56.8977C94.0246 56.8977 95.3646 57.1297 96.6051 57.5938C97.8551 58.0483 98.9441 58.7348 99.8722 59.6534C100.81 60.572 101.539 61.7273 102.06 63.1193C102.58 64.5019 102.841 66.1212 102.841 67.9773V69.6392H84.4176V65.8892H97.1449C97.1449 65.018 96.9555 64.2462 96.5767 63.5739C96.1979 62.9015 95.6723 62.3759 95 61.9972C94.3371 61.6089 93.5653 61.4148 92.6847 61.4148C91.7661 61.4148 90.9517 61.6278 90.2415 62.054C89.5407 62.4706 88.9915 63.0341 88.5938 63.7443C88.196 64.4451 87.9924 65.2263 87.983 66.0881V69.6534C87.983 70.733 88.1818 71.6657 88.5795 72.4517C88.9867 73.2377 89.5597 73.8438 90.2983 74.2699C91.0369 74.696 91.9129 74.9091 92.9261 74.9091C93.5985 74.9091 94.214 74.8144 94.7727 74.625C95.3314 74.4356 95.8097 74.1515 96.2074 73.7727C96.6051 73.3939 96.9081 72.9299 97.1165 72.3807L102.713 72.75C102.429 74.0947 101.847 75.2689 100.966 76.2727C100.095 77.267 98.9678 78.0436 97.5852 78.6023C96.2121 79.1515 94.6259 79.4261 92.8267 79.4261ZM106.79 79V57.1818H112.656V60.9886H112.884C113.281 59.6345 113.949 58.6117 114.886 57.9205C115.824 57.2197 116.903 56.8693 118.125 56.8693C118.428 56.8693 118.755 56.8883 119.105 56.9261C119.455 56.964 119.763 57.0161 120.028 57.0824V62.4517C119.744 62.3665 119.351 62.2907 118.849 62.2244C118.348 62.1581 117.888 62.125 117.472 62.125C116.581 62.125 115.786 62.3191 115.085 62.7074C114.394 63.0862 113.845 63.6165 113.438 64.2983C113.04 64.9801 112.841 65.7661 112.841 66.6562V79H106.79ZM127.234 75.0227L127.077 76.5852C126.954 77.8352 126.718 79.0805 126.367 80.321C126.026 81.571 125.666 82.7027 125.288 83.7159C124.918 84.7292 124.62 85.5246 124.393 86.1023H120.472C120.614 85.5436 120.808 84.7623 121.055 83.7585C121.301 82.7642 121.533 81.6468 121.751 80.4062C121.969 79.1657 122.106 77.9015 122.163 76.6136L122.234 75.0227H127.234ZM150.6 79.4261C148.356 79.4261 146.424 78.9716 144.805 78.0625C143.195 77.1439 141.954 75.8466 141.083 74.1705C140.212 72.4848 139.776 70.4915 139.776 68.1903C139.776 65.946 140.212 63.9763 141.083 62.2812C141.954 60.5862 143.181 59.2652 144.762 58.3182C146.353 57.3712 148.219 56.8977 150.359 56.8977C151.798 56.8977 153.138 57.1297 154.379 57.5938C155.629 58.0483 156.718 58.7348 157.646 59.6534C158.583 60.572 159.312 61.7273 159.833 63.1193C160.354 64.5019 160.614 66.1212 160.614 67.9773V69.6392H142.191V65.8892H154.918C154.918 65.018 154.729 64.2462 154.35 63.5739C153.971 62.9015 153.446 62.3759 152.773 61.9972C152.111 61.6089 151.339 61.4148 150.458 61.4148C149.54 61.4148 148.725 61.6278 148.015 62.054C147.314 62.4706 146.765 63.0341 146.367 63.7443C145.969 64.4451 145.766 65.2263 145.756 66.0881V69.6534C145.756 70.733 145.955 71.6657 146.353 72.4517C146.76 73.2377 147.333 73.8438 148.072 74.2699C148.81 74.696 149.686 74.9091 150.7 74.9091C151.372 74.9091 151.987 74.8144 152.546 74.625C153.105 74.4356 153.583 74.1515 153.981 73.7727C154.379 73.3939 154.682 72.9299 154.89 72.3807L160.487 72.75C160.202 74.0947 159.62 75.2689 158.739 76.2727C157.868 77.267 156.741 78.0436 155.359 78.6023C153.986 79.1515 152.399 79.4261 150.6 79.4261ZM170.614 49.9091V79H164.563V49.9091H170.614ZM185.405 79.4261C183.161 79.4261 181.229 78.9716 179.609 78.0625C178 77.1439 176.759 75.8466 175.888 74.1705C175.017 72.4848 174.581 70.4915 174.581 68.1903C174.581 65.946 175.017 63.9763 175.888 62.2812C176.759 60.5862 177.985 59.2652 179.567 58.3182C181.158 57.3712 183.023 56.8977 185.163 56.8977C186.603 56.8977 187.943 57.1297 189.183 57.5938C190.433 58.0483 191.522 58.7348 192.45 59.6534C193.388 60.572 194.117 61.7273 194.638 63.1193C195.159 64.5019 195.419 66.1212 195.419 67.9773V69.6392H176.996V65.8892H189.723C189.723 65.018 189.534 64.2462 189.155 63.5739C188.776 62.9015 188.25 62.3759 187.578 61.9972C186.915 61.6089 186.143 61.4148 185.263 61.4148C184.344 61.4148 183.53 61.6278 182.82 62.054C182.119 62.4706 181.57 63.0341 181.172 63.7443C180.774 64.4451 180.571 65.2263 180.561 66.0881V69.6534C180.561 70.733 180.76 71.6657 181.158 72.4517C181.565 73.2377 182.138 73.8438 182.876 74.2699C183.615 74.696 184.491 74.9091 185.504 74.9091C186.177 74.9091 186.792 74.8144 187.351 74.625C187.91 74.4356 188.388 74.1515 188.786 73.7727C189.183 73.3939 189.486 72.9299 189.695 72.3807L195.291 72.75C195.007 74.0947 194.425 75.2689 193.544 76.2727C192.673 77.267 191.546 78.0436 190.163 78.6023C188.79 79.1515 187.204 79.4261 185.405 79.4261ZM209.197 87.6364C207.237 87.6364 205.556 87.3665 204.155 86.8267C202.763 86.2964 201.655 85.572 200.831 84.6534C200.007 83.7348 199.472 82.7027 199.226 81.5568L204.822 80.804C204.993 81.2396 205.263 81.6468 205.632 82.0256C206.001 82.4044 206.489 82.7074 207.095 82.9347C207.711 83.1714 208.459 83.2898 209.339 83.2898C210.656 83.2898 211.74 82.9678 212.592 82.3239C213.454 81.6894 213.885 80.6241 213.885 79.1278V75.1364H213.629C213.364 75.7424 212.966 76.3153 212.436 76.8551C211.906 77.3949 211.224 77.8352 210.391 78.1761C209.557 78.517 208.563 78.6875 207.408 78.6875C205.769 78.6875 204.278 78.3087 202.933 77.5511C201.598 76.7841 200.533 75.6146 199.737 74.0426C198.951 72.4612 198.558 70.4631 198.558 68.0483C198.558 65.5767 198.961 63.5123 199.766 61.8551C200.571 60.1979 201.641 58.9574 202.976 58.1335C204.321 57.3097 205.793 56.8977 207.393 56.8977C208.615 56.8977 209.638 57.1061 210.462 57.5227C211.286 57.9299 211.948 58.4413 212.45 59.0568C212.962 59.6629 213.355 60.2595 213.629 60.8466H213.857V57.1818H219.865V79.2131C219.865 81.0691 219.411 82.6222 218.501 83.8722C217.592 85.1222 216.333 86.0597 214.723 86.6847C213.123 87.3191 211.281 87.6364 209.197 87.6364ZM209.325 74.142C210.301 74.142 211.125 73.9006 211.797 73.4176C212.479 72.9252 213 72.2244 213.359 71.3153C213.729 70.3968 213.913 69.2983 213.913 68.0199C213.913 66.7415 213.733 65.6335 213.374 64.696C213.014 63.7491 212.493 63.0152 211.811 62.4943C211.129 61.9735 210.301 61.7131 209.325 61.7131C208.331 61.7131 207.493 61.983 206.811 62.5227C206.129 63.053 205.613 63.7917 205.263 64.7386C204.912 65.6856 204.737 66.7794 204.737 68.0199C204.737 69.2794 204.912 70.3684 205.263 71.2869C205.623 72.196 206.139 72.9015 206.811 73.4034C207.493 73.8958 208.331 74.142 209.325 74.142ZM230.902 79.4119C229.51 79.4119 228.269 79.1705 227.18 78.6875C226.091 78.1951 225.23 77.4706 224.595 76.5142C223.97 75.5483 223.658 74.3456 223.658 72.9062C223.658 71.6941 223.88 70.6761 224.325 69.8523C224.77 69.0284 225.376 68.3655 226.143 67.8636C226.911 67.3617 227.782 66.983 228.757 66.7273C229.742 66.4716 230.774 66.2917 231.854 66.1875C233.123 66.0549 234.145 65.9318 234.922 65.8182C235.698 65.6951 236.262 65.5152 236.612 65.2784C236.963 65.0417 237.138 64.6913 237.138 64.2273V64.142C237.138 63.2424 236.854 62.5464 236.286 62.054C235.727 61.5616 234.931 61.3153 233.899 61.3153C232.81 61.3153 231.944 61.5568 231.3 62.0398C230.656 62.5133 230.23 63.1098 230.021 63.8295L224.425 63.375C224.709 62.0492 225.268 60.9034 226.101 59.9375C226.934 58.9621 228.009 58.214 229.325 57.6932C230.651 57.1629 232.185 56.8977 233.928 56.8977C235.14 56.8977 236.3 57.0398 237.408 57.3239C238.525 57.608 239.515 58.0483 240.376 58.6449C241.248 59.2415 241.934 60.0085 242.436 60.946C242.938 61.8741 243.189 62.9867 243.189 64.2841V79H237.45V75.9744H237.28C236.929 76.6562 236.461 77.2576 235.874 77.7784C235.286 78.2898 234.581 78.6922 233.757 78.9858C232.933 79.2699 231.982 79.4119 230.902 79.4119ZM232.635 75.2358C233.525 75.2358 234.311 75.0606 234.993 74.7102C235.675 74.3504 236.21 73.8674 236.598 73.2614C236.986 72.6553 237.18 71.9687 237.18 71.2017V68.8864C236.991 69.0095 236.731 69.1231 236.399 69.2273C236.077 69.322 235.713 69.4119 235.305 69.4972C234.898 69.5729 234.491 69.6439 234.084 69.7102C233.677 69.767 233.307 69.8191 232.976 69.8665C232.266 69.9706 231.645 70.1364 231.115 70.3636C230.585 70.5909 230.173 70.8987 229.879 71.2869C229.586 71.6657 229.439 72.1392 229.439 72.7074C229.439 73.5312 229.737 74.161 230.334 74.5966C230.94 75.0227 231.707 75.2358 232.635 75.2358ZM253.935 66.3864V79H247.884V57.1818H253.651V61.0312H253.906C254.389 59.7623 255.199 58.7585 256.335 58.0199C257.472 57.2718 258.849 56.8977 260.469 56.8977C261.984 56.8977 263.305 57.2292 264.432 57.892C265.559 58.5549 266.435 59.5019 267.06 60.733C267.685 61.9545 267.997 63.4129 267.997 65.108V79H261.946V66.1875C261.955 64.8523 261.615 63.8106 260.923 63.0625C260.232 62.3049 259.28 61.9261 258.068 61.9261C257.254 61.9261 256.534 62.1013 255.909 62.4517C255.294 62.8021 254.811 63.3134 254.46 63.9858C254.119 64.6487 253.944 65.4489 253.935 66.3864ZM284.371 57.1818V61.7273H271.232V57.1818H284.371ZM274.215 51.9545H280.266V72.2955C280.266 72.8542 280.352 73.2898 280.522 73.6023C280.692 73.9053 280.929 74.1184 281.232 74.2415C281.545 74.3646 281.905 74.4261 282.312 74.4261C282.596 74.4261 282.88 74.4025 283.164 74.3551C283.448 74.2983 283.666 74.2557 283.817 74.2273L284.769 78.7301C284.466 78.8248 284.04 78.9337 283.491 79.0568C282.942 79.1894 282.274 79.2699 281.488 79.2983C280.03 79.3551 278.751 79.161 277.653 78.7159C276.564 78.2708 275.716 77.5795 275.11 76.642C274.504 75.7045 274.206 74.5208 274.215 73.0909V51.9545ZM306.491 79.4261C304.484 79.4261 302.751 79.0663 301.293 78.3466C299.834 77.6269 298.712 76.6515 297.926 75.4205C297.15 74.1799 296.761 72.7973 296.761 71.2727C296.761 70.1364 296.989 69.1278 297.443 68.2472C297.898 67.3665 298.532 66.5568 299.347 65.8182C300.161 65.0701 301.108 64.3267 302.188 63.5881L307.827 59.8807C308.556 59.4167 309.091 58.929 309.432 58.4176C309.773 57.8968 309.943 57.3333 309.943 56.7273C309.943 56.1496 309.711 55.6146 309.247 55.1222C308.783 54.6297 308.125 54.3883 307.273 54.3977C306.705 54.3977 306.212 54.5256 305.795 54.7812C305.379 55.0275 305.052 55.3542 304.815 55.7614C304.588 56.1591 304.474 56.6042 304.474 57.0966C304.474 57.7027 304.645 58.3182 304.986 58.9432C305.327 59.5682 305.781 60.2311 306.349 60.9318C306.918 61.6231 307.538 62.3712 308.21 63.1761L322.003 79H315.696L304.19 66.1875C303.433 65.3258 302.675 64.4261 301.918 63.4886C301.17 62.5417 300.545 61.5379 300.043 60.4773C299.541 59.4072 299.29 58.2472 299.29 56.9972C299.29 55.5862 299.616 54.3172 300.27 53.1903C300.933 52.0634 301.861 51.1733 303.054 50.5199C304.247 49.857 305.639 49.5256 307.23 49.5256C308.783 49.5256 310.123 49.8428 311.25 50.4773C312.386 51.1023 313.258 51.9356 313.864 52.9773C314.479 54.0095 314.787 55.1458 314.787 56.3864C314.787 57.7595 314.446 59.0047 313.764 60.1222C313.092 61.2301 312.145 62.2244 310.923 63.1051L304.986 67.3807C304.181 67.9678 303.584 68.5691 303.196 69.1847C302.817 69.7907 302.628 70.3731 302.628 70.9318C302.628 71.6231 302.798 72.2434 303.139 72.7926C303.48 73.3419 303.963 73.7775 304.588 74.0994C305.213 74.4119 305.947 74.5682 306.79 74.5682C307.812 74.5682 308.821 74.3362 309.815 73.8722C310.819 73.3987 311.728 72.7311 312.543 71.8693C313.366 70.9981 314.025 69.9659 314.517 68.7727C315.009 67.5795 315.256 66.2585 315.256 64.8097H320.27C320.27 66.59 320.076 68.1951 319.688 69.625C319.299 71.0455 318.759 72.286 318.068 73.3466C317.377 74.3977 316.586 75.2595 315.696 75.9318C315.412 76.1117 315.137 76.2822 314.872 76.4432C314.607 76.6042 314.332 76.7746 314.048 76.9545C312.969 77.8258 311.761 78.4555 310.426 78.8438C309.1 79.232 307.789 79.4261 306.491 79.4261ZM351.935 63.4034L346.396 63.7443C346.301 63.2708 346.097 62.8447 345.785 62.4659C345.472 62.0777 345.06 61.7699 344.549 61.5426C344.047 61.3059 343.446 61.1875 342.745 61.1875C341.808 61.1875 341.017 61.3864 340.373 61.7841C339.729 62.1723 339.407 62.6932 339.407 63.3466C339.407 63.8674 339.615 64.3078 340.032 64.6676C340.449 65.0275 341.164 65.3163 342.177 65.5341L346.126 66.3295C348.247 66.7652 349.828 67.4659 350.87 68.4318C351.912 69.3977 352.433 70.6667 352.433 72.2386C352.433 73.6686 352.011 74.9233 351.168 76.0028C350.335 77.0824 349.189 77.9252 347.731 78.5312C346.282 79.1278 344.611 79.4261 342.717 79.4261C339.828 79.4261 337.527 78.8248 335.813 77.6222C334.109 76.41 333.11 74.7623 332.816 72.679L338.768 72.3665C338.948 73.2472 339.383 73.9195 340.075 74.3835C340.766 74.8381 341.651 75.0653 342.731 75.0653C343.791 75.0653 344.644 74.8617 345.288 74.4545C345.941 74.0379 346.272 73.5028 346.282 72.8494C346.272 72.3002 346.04 71.8504 345.586 71.5C345.131 71.1402 344.431 70.8655 343.484 70.6761L339.705 69.9233C337.575 69.4972 335.988 68.7585 334.947 67.7074C333.915 66.6562 333.398 65.3163 333.398 63.6875C333.398 62.286 333.777 61.0786 334.535 60.0653C335.302 59.0521 336.377 58.2708 337.759 57.7216C339.151 57.1723 340.78 56.8977 342.646 56.8977C345.401 56.8977 347.57 57.4801 349.151 58.6449C350.742 59.8097 351.67 61.3958 351.935 63.4034ZM370.234 69.7102V57.1818H376.286V79H370.476V75.0369H370.249C369.756 76.3153 368.937 77.3428 367.791 78.1193C366.655 78.8958 365.268 79.2841 363.629 79.2841C362.171 79.2841 360.888 78.9527 359.78 78.2898C358.672 77.6269 357.805 76.6847 357.18 75.4631C356.565 74.2415 356.252 72.7784 356.243 71.0739V57.1818H362.294V69.9943C362.304 71.2822 362.649 72.3002 363.331 73.0483C364.013 73.7964 364.927 74.1705 366.072 74.1705C366.802 74.1705 367.483 74.0047 368.118 73.6733C368.752 73.3324 369.264 72.8305 369.652 72.1676C370.05 71.5047 370.244 70.6856 370.234 69.7102ZM381.126 87.1818V57.1818H387.092V60.8466H387.362C387.627 60.2595 388.01 59.6629 388.512 59.0568C389.023 58.4413 389.686 57.9299 390.501 57.5227C391.325 57.1061 392.347 56.8977 393.569 56.8977C395.16 56.8977 396.628 57.3144 397.972 58.1477C399.317 58.9716 400.392 60.2169 401.197 61.8835C402.002 63.5407 402.404 65.6193 402.404 68.1193C402.404 70.553 402.011 72.608 401.225 74.2841C400.449 75.9508 399.388 77.215 398.043 78.0767C396.708 78.929 395.212 79.3551 393.555 79.3551C392.38 79.3551 391.381 79.161 390.558 78.7727C389.743 78.3845 389.076 77.8968 388.555 77.3097C388.034 76.7131 387.636 76.1117 387.362 75.5057H387.177V87.1818H381.126ZM387.049 68.0909C387.049 69.3883 387.229 70.5199 387.589 71.4858C387.949 72.4517 388.469 73.2045 389.151 73.7443C389.833 74.2746 390.662 74.5398 391.637 74.5398C392.622 74.5398 393.455 74.2699 394.137 73.7301C394.819 73.1809 395.335 72.4233 395.685 71.4574C396.045 70.482 396.225 69.3598 396.225 68.0909C396.225 66.8314 396.05 65.7235 395.7 64.767C395.349 63.8106 394.833 63.0625 394.151 62.5227C393.469 61.983 392.631 61.7131 391.637 61.7131C390.652 61.7131 389.819 61.9735 389.137 62.4943C388.465 63.0152 387.949 63.7538 387.589 64.7102C387.229 65.6667 387.049 66.7936 387.049 68.0909ZM416.381 79.4261C414.137 79.4261 412.205 78.9716 410.586 78.0625C408.976 77.1439 407.736 75.8466 406.864 74.1705C405.993 72.4848 405.558 70.4915 405.558 68.1903C405.558 65.946 405.993 63.9763 406.864 62.2812C407.736 60.5862 408.962 59.2652 410.543 58.3182C412.134 57.3712 414 56.8977 416.14 56.8977C417.579 56.8977 418.919 57.1297 420.16 57.5938C421.41 58.0483 422.499 58.7348 423.427 59.6534C424.364 60.572 425.094 61.7273 425.614 63.1193C426.135 64.5019 426.396 66.1212 426.396 67.9773V69.6392H407.972V65.8892H420.7C420.7 65.018 420.51 64.2462 420.131 63.5739C419.753 62.9015 419.227 62.3759 418.555 61.9972C417.892 61.6089 417.12 61.4148 416.239 61.4148C415.321 61.4148 414.506 61.6278 413.796 62.054C413.095 62.4706 412.546 63.0341 412.148 63.7443C411.751 64.4451 411.547 65.2263 411.538 66.0881V69.6534C411.538 70.733 411.737 71.6657 412.134 72.4517C412.541 73.2377 413.114 73.8438 413.853 74.2699C414.592 74.696 415.468 74.9091 416.481 74.9091C417.153 74.9091 417.769 74.8144 418.327 74.625C418.886 74.4356 419.364 74.1515 419.762 73.7727C420.16 73.3939 420.463 72.9299 420.671 72.3807L426.268 72.75C425.984 74.0947 425.401 75.2689 424.521 76.2727C423.649 77.267 422.522 78.0436 421.14 78.6023C419.767 79.1515 418.181 79.4261 416.381 79.4261ZM430.344 79V57.1818H436.211V60.9886H436.438C436.836 59.6345 437.504 58.6117 438.441 57.9205C439.379 57.2197 440.458 56.8693 441.68 56.8693C441.983 56.8693 442.309 56.8883 442.66 56.9261C443.01 56.964 443.318 57.0161 443.583 57.0824V62.4517C443.299 62.3665 442.906 62.2907 442.404 62.2244C441.902 62.1581 441.443 62.125 441.026 62.125C440.136 62.125 439.341 62.3191 438.64 62.7074C437.949 63.0862 437.399 63.6165 436.992 64.2983C436.594 64.9801 436.396 65.7661 436.396 66.6562V79H430.344ZM446.825 79V49.9091H452.876V60.8466H453.061C453.326 60.2595 453.71 59.6629 454.212 59.0568C454.723 58.4413 455.386 57.9299 456.2 57.5227C457.024 57.1061 458.047 56.8977 459.268 56.8977C460.859 56.8977 462.327 57.3144 463.672 58.1477C465.017 58.9716 466.091 60.2169 466.896 61.8835C467.701 63.5407 468.104 65.6193 468.104 68.1193C468.104 70.553 467.711 72.608 466.925 74.2841C466.148 75.9508 465.088 77.215 463.743 78.0767C462.408 78.929 460.911 79.3551 459.254 79.3551C458.08 79.3551 457.081 79.161 456.257 78.7727C455.443 78.3845 454.775 77.8968 454.254 77.3097C453.733 76.7131 453.336 76.1117 453.061 75.5057H452.791V79H446.825ZM452.749 68.0909C452.749 69.3883 452.929 70.5199 453.288 71.4858C453.648 72.4517 454.169 73.2045 454.851 73.7443C455.533 74.2746 456.361 74.5398 457.337 74.5398C458.321 74.5398 459.155 74.2699 459.837 73.7301C460.518 73.1809 461.035 72.4233 461.385 71.4574C461.745 70.482 461.925 69.3598 461.925 68.0909C461.925 66.8314 461.75 65.7235 461.399 64.767C461.049 63.8106 460.533 63.0625 459.851 62.5227C459.169 61.983 458.331 61.7131 457.337 61.7131C456.352 61.7131 455.518 61.9735 454.837 62.4943C454.164 63.0152 453.648 63.7538 453.288 64.7102C452.929 65.6667 452.749 66.7936 452.749 68.0909ZM6.71875 127L0.78125 105.182H6.90341L10.2841 119.841H10.483L14.0057 105.182H20.0142L23.5938 119.756H23.7784L27.1023 105.182H33.2102L27.2869 127H20.8807L17.1307 113.278H16.8608L13.1108 127H6.71875ZM36.4382 127V105.182H42.4893V127H36.4382ZM39.478 102.369C38.5784 102.369 37.8066 102.071 37.1626 101.474C36.5282 100.868 36.2109 100.144 36.2109 99.3011C36.2109 98.4678 36.5282 97.7528 37.1626 97.1562C37.8066 96.5502 38.5784 96.2472 39.478 96.2472C40.3776 96.2472 41.1446 96.5502 41.7791 97.1562C42.4231 97.7528 42.745 98.4678 42.745 99.3011C42.745 100.144 42.4231 100.868 41.7791 101.474C41.1446 102.071 40.3776 102.369 39.478 102.369ZM58.9418 105.182V109.727H45.8026V105.182H58.9418ZM48.7855 99.9545H54.8366V120.295C54.8366 120.854 54.9219 121.29 55.0923 121.602C55.2628 121.905 55.4995 122.118 55.8026 122.241C56.1151 122.365 56.4749 122.426 56.8821 122.426C57.1662 122.426 57.4503 122.402 57.7344 122.355C58.0185 122.298 58.2363 122.256 58.3878 122.227L59.3395 126.73C59.0365 126.825 58.6103 126.934 58.0611 127.057C57.5118 127.189 56.8442 127.27 56.0582 127.298C54.5999 127.355 53.3215 127.161 52.223 126.716C51.134 126.271 50.2865 125.58 49.6804 124.642C49.0743 123.705 48.776 122.521 48.7855 121.091V99.9545ZM69.4034 114.386V127H63.3523V97.9091H69.233V109.031H69.4886C69.9811 107.743 70.7765 106.735 71.875 106.006C72.9735 105.267 74.3513 104.898 76.0085 104.898C77.5237 104.898 78.8447 105.229 79.9716 105.892C81.108 106.545 81.9886 107.488 82.6136 108.719C83.2481 109.94 83.5606 111.403 83.5511 113.108V127H77.5V114.188C77.5095 112.843 77.1686 111.796 76.4773 111.048C75.7955 110.3 74.839 109.926 73.608 109.926C72.7841 109.926 72.0549 110.101 71.4205 110.452C70.7955 110.802 70.303 111.313 69.9432 111.986C69.5928 112.649 69.4129 113.449 69.4034 114.386ZM107.997 127H97.6847V97.9091H108.082C111.009 97.9091 113.527 98.4915 115.639 99.6562C117.751 100.812 119.375 102.473 120.511 104.642C121.657 106.811 122.23 109.405 122.23 112.426C122.23 115.456 121.657 118.061 120.511 120.239C119.375 122.417 117.741 124.088 115.611 125.253C113.49 126.418 110.952 127 107.997 127ZM103.835 121.73H107.741C109.56 121.73 111.089 121.408 112.33 120.764C113.58 120.111 114.517 119.102 115.142 117.739C115.777 116.366 116.094 114.595 116.094 112.426C116.094 110.277 115.777 108.52 115.142 107.156C114.517 105.793 113.584 104.789 112.344 104.145C111.103 103.501 109.574 103.179 107.756 103.179H103.835V121.73ZM126.673 127V105.182H132.724V127H126.673ZM129.712 102.369C128.813 102.369 128.041 102.071 127.397 101.474C126.763 100.868 126.445 100.144 126.445 99.3011C126.445 98.4678 126.763 97.7528 127.397 97.1562C128.041 96.5502 128.813 96.2472 129.712 96.2472C130.612 96.2472 131.379 96.5502 132.013 97.1562C132.657 97.7528 132.979 98.4678 132.979 99.3011C132.979 100.144 132.657 100.868 132.013 101.474C131.379 102.071 130.612 102.369 129.712 102.369ZM155.724 111.403L150.185 111.744C150.09 111.271 149.886 110.845 149.574 110.466C149.261 110.078 148.849 109.77 148.338 109.543C147.836 109.306 147.235 109.188 146.534 109.188C145.597 109.188 144.806 109.386 144.162 109.784C143.518 110.172 143.196 110.693 143.196 111.347C143.196 111.867 143.404 112.308 143.821 112.668C144.238 113.027 144.953 113.316 145.966 113.534L149.915 114.33C152.036 114.765 153.617 115.466 154.659 116.432C155.701 117.398 156.222 118.667 156.222 120.239C156.222 121.669 155.8 122.923 154.957 124.003C154.124 125.082 152.978 125.925 151.52 126.531C150.071 127.128 148.4 127.426 146.506 127.426C143.617 127.426 141.316 126.825 139.602 125.622C137.898 124.41 136.899 122.762 136.605 120.679L142.557 120.366C142.737 121.247 143.172 121.92 143.864 122.384C144.555 122.838 145.44 123.065 146.52 123.065C147.58 123.065 148.433 122.862 149.077 122.455C149.73 122.038 150.062 121.503 150.071 120.849C150.062 120.3 149.83 119.85 149.375 119.5C148.92 119.14 148.22 118.866 147.273 118.676L143.494 117.923C141.364 117.497 139.777 116.759 138.736 115.707C137.704 114.656 137.188 113.316 137.188 111.688C137.188 110.286 137.566 109.079 138.324 108.065C139.091 107.052 140.166 106.271 141.548 105.722C142.94 105.172 144.569 104.898 146.435 104.898C149.19 104.898 151.359 105.48 152.94 106.645C154.531 107.81 155.459 109.396 155.724 111.403ZM160.032 135.182V105.182H165.998V108.847H166.268C166.533 108.259 166.916 107.663 167.418 107.057C167.93 106.441 168.593 105.93 169.407 105.523C170.231 105.106 171.254 104.898 172.475 104.898C174.066 104.898 175.534 105.314 176.879 106.148C178.223 106.972 179.298 108.217 180.103 109.884C180.908 111.541 181.31 113.619 181.31 116.119C181.31 118.553 180.917 120.608 180.131 122.284C179.355 123.951 178.294 125.215 176.95 126.077C175.614 126.929 174.118 127.355 172.461 127.355C171.287 127.355 170.288 127.161 169.464 126.773C168.649 126.384 167.982 125.897 167.461 125.31C166.94 124.713 166.542 124.112 166.268 123.506H166.083V135.182H160.032ZM165.955 116.091C165.955 117.388 166.135 118.52 166.495 119.486C166.855 120.452 167.376 121.205 168.058 121.744C168.739 122.275 169.568 122.54 170.543 122.54C171.528 122.54 172.362 122.27 173.043 121.73C173.725 121.181 174.241 120.423 174.592 119.457C174.951 118.482 175.131 117.36 175.131 116.091C175.131 114.831 174.956 113.723 174.606 112.767C174.255 111.811 173.739 111.062 173.058 110.523C172.376 109.983 171.538 109.713 170.543 109.713C169.558 109.713 168.725 109.973 168.043 110.494C167.371 111.015 166.855 111.754 166.495 112.71C166.135 113.667 165.955 114.794 165.955 116.091ZM191.566 127.412C190.174 127.412 188.933 127.17 187.844 126.688C186.755 126.195 185.894 125.471 185.259 124.514C184.634 123.548 184.322 122.346 184.322 120.906C184.322 119.694 184.544 118.676 184.989 117.852C185.434 117.028 186.04 116.366 186.808 115.864C187.575 115.362 188.446 114.983 189.421 114.727C190.406 114.472 191.438 114.292 192.518 114.188C193.787 114.055 194.809 113.932 195.586 113.818C196.362 113.695 196.926 113.515 197.276 113.278C197.627 113.042 197.802 112.691 197.802 112.227V112.142C197.802 111.242 197.518 110.546 196.95 110.054C196.391 109.562 195.595 109.315 194.563 109.315C193.474 109.315 192.608 109.557 191.964 110.04C191.32 110.513 190.894 111.11 190.685 111.83L185.089 111.375C185.373 110.049 185.932 108.903 186.765 107.938C187.598 106.962 188.673 106.214 189.989 105.693C191.315 105.163 192.849 104.898 194.592 104.898C195.804 104.898 196.964 105.04 198.072 105.324C199.189 105.608 200.179 106.048 201.04 106.645C201.912 107.241 202.598 108.009 203.1 108.946C203.602 109.874 203.853 110.987 203.853 112.284V127H198.114V123.974H197.944C197.594 124.656 197.125 125.258 196.538 125.778C195.951 126.29 195.245 126.692 194.421 126.986C193.597 127.27 192.646 127.412 191.566 127.412ZM193.299 123.236C194.189 123.236 194.975 123.061 195.657 122.71C196.339 122.35 196.874 121.867 197.262 121.261C197.65 120.655 197.844 119.969 197.844 119.202V116.886C197.655 117.009 197.395 117.123 197.063 117.227C196.741 117.322 196.377 117.412 195.969 117.497C195.562 117.573 195.155 117.644 194.748 117.71C194.341 117.767 193.971 117.819 193.64 117.866C192.93 117.971 192.309 118.136 191.779 118.364C191.249 118.591 190.837 118.899 190.543 119.287C190.25 119.666 190.103 120.139 190.103 120.707C190.103 121.531 190.401 122.161 190.998 122.597C191.604 123.023 192.371 123.236 193.299 123.236ZM220.153 105.182V109.727H207.013V105.182H220.153ZM209.996 99.9545H216.048V120.295C216.048 120.854 216.133 121.29 216.303 121.602C216.474 121.905 216.71 122.118 217.013 122.241C217.326 122.365 217.686 122.426 218.093 122.426C218.377 122.426 218.661 122.402 218.945 122.355C219.229 122.298 219.447 122.256 219.599 122.227L220.55 126.73C220.247 126.825 219.821 126.934 219.272 127.057C218.723 127.189 218.055 127.27 217.269 127.298C215.811 127.355 214.532 127.161 213.434 126.716C212.345 126.271 211.497 125.58 210.891 124.642C210.285 123.705 209.987 122.521 209.996 121.091V99.9545ZM233.718 127.426C231.483 127.426 229.561 126.953 227.951 126.006C226.351 125.049 225.12 123.723 224.258 122.028C223.406 120.333 222.979 118.383 222.979 116.176C222.979 113.941 223.41 111.981 224.272 110.295C225.143 108.6 226.379 107.279 227.979 106.332C229.58 105.376 231.483 104.898 233.69 104.898C235.593 104.898 237.26 105.243 238.69 105.935C240.12 106.626 241.251 107.597 242.085 108.847C242.918 110.097 243.377 111.564 243.462 113.25H237.752C237.591 112.161 237.165 111.285 236.474 110.622C235.792 109.95 234.897 109.614 233.789 109.614C232.852 109.614 232.032 109.869 231.332 110.381C230.64 110.883 230.101 111.616 229.712 112.582C229.324 113.548 229.13 114.718 229.13 116.091C229.13 117.483 229.319 118.667 229.698 119.642C230.086 120.617 230.631 121.361 231.332 121.872C232.032 122.384 232.852 122.639 233.789 122.639C234.48 122.639 235.101 122.497 235.65 122.213C236.209 121.929 236.668 121.517 237.028 120.977C237.397 120.428 237.638 119.77 237.752 119.003H243.462C243.368 120.67 242.913 122.137 242.099 123.406C241.294 124.666 240.181 125.651 238.761 126.361C237.34 127.071 235.659 127.426 233.718 127.426ZM253.388 114.386V127H247.337V97.9091H253.217V109.031H253.473C253.965 107.743 254.761 106.735 255.859 106.006C256.958 105.267 258.336 104.898 259.993 104.898C261.508 104.898 262.829 105.229 263.956 105.892C265.092 106.545 265.973 107.488 266.598 108.719C267.232 109.94 267.545 111.403 267.536 113.108V127H261.484V114.188C261.494 112.843 261.153 111.796 260.462 111.048C259.78 110.3 258.823 109.926 257.592 109.926C256.768 109.926 256.039 110.101 255.405 110.452C254.78 110.802 254.287 111.313 253.928 111.986C253.577 112.649 253.397 113.449 253.388 114.386ZM281.669 127V97.9091H293.317C295.457 97.9091 297.242 98.2263 298.672 98.8608C300.102 99.4953 301.177 100.376 301.896 101.503C302.616 102.62 302.976 103.908 302.976 105.366C302.976 106.503 302.749 107.502 302.294 108.364C301.839 109.216 301.214 109.917 300.419 110.466C299.633 111.006 298.733 111.389 297.72 111.616V111.901C298.828 111.948 299.865 112.26 300.831 112.838C301.806 113.416 302.597 114.225 303.203 115.267C303.809 116.299 304.112 117.53 304.112 118.96C304.112 120.504 303.729 121.882 302.962 123.094C302.204 124.296 301.082 125.248 299.595 125.949C298.108 126.65 296.276 127 294.098 127H281.669ZM287.82 121.972H292.834C294.548 121.972 295.798 121.645 296.584 120.991C297.37 120.329 297.763 119.448 297.763 118.349C297.763 117.545 297.569 116.834 297.18 116.219C296.792 115.603 296.238 115.12 295.518 114.77C294.808 114.42 293.961 114.244 292.976 114.244H287.82V121.972ZM287.82 110.082H292.379C293.222 110.082 293.97 109.936 294.624 109.642C295.286 109.339 295.807 108.913 296.186 108.364C296.574 107.814 296.768 107.156 296.768 106.389C296.768 105.338 296.394 104.491 295.646 103.847C294.908 103.203 293.857 102.881 292.493 102.881H287.82V110.082ZM321.992 117.71V105.182H328.043V127H322.234V123.037H322.006C321.514 124.315 320.695 125.343 319.549 126.119C318.413 126.896 317.025 127.284 315.387 127.284C313.929 127.284 312.646 126.953 311.538 126.29C310.43 125.627 309.563 124.685 308.938 123.463C308.323 122.241 308.01 120.778 308.001 119.074V105.182H314.052V117.994C314.061 119.282 314.407 120.3 315.089 121.048C315.771 121.796 316.684 122.17 317.83 122.17C318.559 122.17 319.241 122.005 319.876 121.673C320.51 121.332 321.022 120.83 321.41 120.168C321.808 119.505 322.002 118.686 321.992 117.71ZM340.923 127.355C339.266 127.355 337.765 126.929 336.42 126.077C335.085 125.215 334.025 123.951 333.239 122.284C332.462 120.608 332.074 118.553 332.074 116.119C332.074 113.619 332.476 111.541 333.281 109.884C334.086 108.217 335.156 106.972 336.491 106.148C337.836 105.314 339.309 104.898 340.909 104.898C342.131 104.898 343.149 105.106 343.963 105.523C344.787 105.93 345.45 106.441 345.952 107.057C346.463 107.663 346.851 108.259 347.116 108.847H347.301V97.9091H353.338V127H347.372V123.506H347.116C346.832 124.112 346.43 124.713 345.909 125.31C345.398 125.897 344.73 126.384 343.906 126.773C343.092 127.161 342.098 127.355 340.923 127.355ZM342.841 122.54C343.816 122.54 344.64 122.275 345.312 121.744C345.994 121.205 346.515 120.452 346.875 119.486C347.244 118.52 347.429 117.388 347.429 116.091C347.429 114.794 347.249 113.667 346.889 112.71C346.529 111.754 346.009 111.015 345.327 110.494C344.645 109.973 343.816 109.713 342.841 109.713C341.847 109.713 341.009 109.983 340.327 110.523C339.645 111.062 339.129 111.811 338.778 112.767C338.428 113.723 338.253 114.831 338.253 116.091C338.253 117.36 338.428 118.482 338.778 119.457C339.138 120.423 339.654 121.181 340.327 121.73C341.009 122.27 341.847 122.54 342.841 122.54ZM366.353 127.355C364.696 127.355 363.195 126.929 361.85 126.077C360.515 125.215 359.454 123.951 358.668 122.284C357.892 120.608 357.504 118.553 357.504 116.119C357.504 113.619 357.906 111.541 358.711 109.884C359.516 108.217 360.586 106.972 361.921 106.148C363.266 105.314 364.738 104.898 366.339 104.898C367.56 104.898 368.578 105.106 369.393 105.523C370.217 105.93 370.879 106.441 371.381 107.057C371.893 107.663 372.281 108.259 372.546 108.847H372.731V97.9091H378.768V127H372.802V123.506H372.546C372.262 124.112 371.86 124.713 371.339 125.31C370.827 125.897 370.16 126.384 369.336 126.773C368.522 127.161 367.527 127.355 366.353 127.355ZM368.271 122.54C369.246 122.54 370.07 122.275 370.742 121.744C371.424 121.205 371.945 120.452 372.305 119.486C372.674 118.52 372.859 117.388 372.859 116.091C372.859 114.794 372.679 113.667 372.319 112.71C371.959 111.754 371.438 111.015 370.756 110.494C370.075 109.973 369.246 109.713 368.271 109.713C367.276 109.713 366.438 109.983 365.756 110.523C365.075 111.062 364.558 111.811 364.208 112.767C363.858 113.723 363.683 114.831 363.683 116.091C363.683 117.36 363.858 118.482 364.208 119.457C364.568 120.423 365.084 121.181 365.756 121.73C366.438 122.27 367.276 122.54 368.271 122.54ZM387.479 135.182C386.712 135.182 385.992 135.12 385.32 134.997C384.657 134.884 384.107 134.737 383.672 134.557L385.036 130.04C385.746 130.258 386.385 130.376 386.953 130.395C387.531 130.414 388.028 130.281 388.445 129.997C388.871 129.713 389.216 129.23 389.482 128.548L389.837 127.625L382.01 105.182H388.374L392.891 121.205H393.118L397.678 105.182H404.084L395.604 129.358C395.196 130.532 394.643 131.555 393.942 132.426C393.25 133.307 392.375 133.984 391.314 134.457C390.253 134.94 388.975 135.182 387.479 135.182Z" fill="white"/>
</svg>
