<svg width="67" height="70" viewBox="0 0 67 70" fill="none" xmlns="http://www.w3.org/2000/svg">
<path d="M66.907 50.1054C66.9056 54.656 65.3501 59.0696 62.4981 62.6156C59.6462 66.1617 55.6688 68.6274 51.2244 69.6047L49.1014 63.2358C51.0455 62.9156 52.8943 62.1682 54.5146 61.0473C56.135 59.9264 57.4865 58.46 58.4717 56.7538H50.2694C48.5044 56.7538 46.8116 56.0526 45.5635 54.8046C44.3155 53.5565 43.6143 51.8638 43.6143 50.0987V36.7886C43.6143 35.0236 44.3155 33.3308 45.5635 32.0828C46.8116 30.8347 48.5044 30.1336 50.2694 30.1336H60.0457C59.2336 23.7011 56.1023 17.786 51.2391 13.4982C46.376 9.21032 40.1153 6.84443 33.6317 6.84443C27.1482 6.84443 20.8875 9.21032 16.0244 13.4982C11.1612 17.786 8.02983 23.7011 7.21781 30.1336H16.9941C18.7591 30.1336 20.4519 30.8347 21.6999 32.0828C22.948 33.3308 23.6492 35.0236 23.6492 36.7886V50.0987C23.6492 51.8638 22.948 53.5565 21.6999 54.8046C20.4519 56.0526 18.7591 56.7538 16.9941 56.7538H7.0115C5.24647 56.7538 3.55373 56.0526 2.30567 54.8046C1.0576 53.5565 0.356445 51.8638 0.356445 50.0987V33.4611C0.356445 15.0831 15.2538 0.185791 33.6317 0.185791C52.0097 0.185791 66.907 15.0831 66.907 33.4611V50.1054Z" fill="#E02B45"/>
</svg>
