<svg width="24" height="24" viewBox="0 0 24 24" fill="none" xmlns="http://www.w3.org/2000/svg">
<rect opacity="0.01" x="24" y="24" width="24" height="24" transform="rotate(180 24 24)" fill="white"/>
<path d="M15.1498 8.39994C13.6019 8.39462 12.1154 9.00514 11.018 10.0969C9.9206 11.1886 9.30245 12.672 9.2998 14.2199V20.0999C9.2998 20.3386 9.39463 20.5676 9.56341 20.7363C9.73219 20.9051 9.96111 20.9999 10.1998 20.9999H12.2998C12.7969 20.9999 13.1998 20.597 13.1998 20.0999V14.2199C13.1994 13.6686 13.4336 13.1432 13.8439 12.7749C14.2541 12.4066 14.8017 12.2303 15.3498 12.2899C16.3558 12.4166 17.1078 13.2761 17.0998 14.2899V20.0999C17.0998 20.597 17.5027 20.9999 17.9998 20.9999H20.0998C20.5969 20.9999 20.9998 20.597 20.9998 20.0999V14.2199C20.9972 12.672 20.379 11.1886 19.2816 10.0969C18.1843 9.00514 16.6977 8.39462 15.1498 8.39994V8.39994Z" fill="white"/>
<rect x="3" y="9.2998" width="4.5" height="11.7" rx="0.9" fill="white"/>
<circle cx="5.25" cy="5.25" r="2.25" fill="white"/>
</svg>
