<svg width="24" height="24" viewBox="0 0 24 24" fill="none" xmlns="http://www.w3.org/2000/svg">
<path d="M19.7887 14.625L18.7125 10.875H16.125V14.25C16.125 14.7473 15.9275 15.2242 15.5758 15.5758C15.2242 15.9275 14.7473 16.125 14.25 16.125H13.5V15.375C13.4993 15.006 13.4208 14.6412 13.2696 14.3046C13.1184 13.9679 12.8979 13.6669 12.6225 13.4213C12.9161 13.3202 13.1642 13.1181 13.3225 12.8511C13.4808 12.584 13.539 12.2694 13.4867 11.9633C13.4344 11.6573 13.2751 11.3798 13.0371 11.1805C12.7991 10.9811 12.498 10.8728 12.1875 10.875H6.9375C6.64594 10.8742 6.36245 10.9707 6.132 11.1493C5.90154 11.3279 5.73733 11.5783 5.6654 11.8609C5.59347 12.1434 5.61795 12.4419 5.73495 12.7089C5.85195 12.976 6.05478 13.1963 6.31125 13.335C5.53701 13.7525 4.89015 14.3717 4.43924 15.1269C3.98833 15.8822 3.75017 16.7454 3.75 17.625C3.75 17.7245 3.78951 17.8198 3.85984 17.8902C3.93016 17.9605 4.02554 18 4.125 18H4.875C4.875 18.8951 5.23058 19.7535 5.86351 20.3865C6.49645 21.0194 7.35489 21.375 8.25 21.375C9.14511 21.375 10.0035 21.0194 10.6365 20.3865C11.2694 19.7535 11.625 18.8951 11.625 18H16.125C16.1274 18.6547 16.3202 19.2945 16.6798 19.8416C17.0394 20.3886 17.5504 20.8193 18.1504 21.0811C18.7505 21.3428 19.4138 21.4245 20.0594 21.3159C20.705 21.2074 21.3051 20.9135 21.7866 20.4699C22.2682 20.0264 22.6103 19.4523 22.7713 18.8178C22.9323 18.1832 22.9053 17.5155 22.6936 16.896C22.4818 16.2765 22.0945 15.732 21.5787 15.3288C21.0629 14.9255 20.441 14.681 19.7887 14.625ZM8.25 19.5C7.95333 19.5 7.66332 19.412 7.41665 19.2472C7.16997 19.0824 6.97771 18.8481 6.86418 18.574C6.75065 18.2999 6.72094 17.9983 6.77882 17.7074C6.8367 17.4164 6.97956 17.1491 7.18934 16.9393C7.39912 16.7296 7.66639 16.5867 7.95736 16.5288C8.24834 16.4709 8.54994 16.5006 8.82403 16.6142C9.09811 16.7277 9.33238 16.92 9.4972 17.1666C9.66203 17.4133 9.75 17.7033 9.75 18C9.75 18.3978 9.59196 18.7794 9.31066 19.0607C9.02936 19.342 8.64782 19.5 8.25 19.5ZM19.5 19.5C19.2033 19.5 18.9133 19.412 18.6666 19.2472C18.42 19.0824 18.2277 18.8481 18.1142 18.574C18.0006 18.2999 17.9709 17.9983 18.0288 17.7074C18.0867 17.4164 18.2296 17.1491 18.4393 16.9393C18.6491 16.7296 18.9164 16.5867 19.2074 16.5288C19.4983 16.4709 19.7999 16.5006 20.074 16.6142C20.3481 16.7277 20.5824 16.92 20.7472 17.1666C20.912 17.4133 21 17.7033 21 18C21 18.3978 20.842 18.7794 20.5607 19.0607C20.2794 19.342 19.8978 19.5 19.5 19.5ZM16.125 6.75V9.75C16.125 9.84946 16.1645 9.94484 16.2348 10.0152C16.3052 10.0855 16.4005 10.125 16.5 10.125H19.125C19.4234 10.125 19.7095 10.0065 19.9205 9.7955C20.1315 9.58452 20.25 9.29837 20.25 9V7.5C20.25 7.20163 20.1315 6.91548 19.9205 6.7045C19.7095 6.49353 19.4234 6.375 19.125 6.375H16.5C16.4005 6.375 16.3052 6.41451 16.2348 6.48483C16.1645 6.55516 16.125 6.65054 16.125 6.75ZM11.625 9.75V3.75C11.625 3.65054 11.5855 3.55516 11.5152 3.48484C11.4448 3.41451 11.3495 3.375 11.25 3.375H1.5C1.40054 3.375 1.30516 3.41451 1.23483 3.48484C1.16451 3.55516 1.125 3.65054 1.125 3.75V9.75C1.125 9.84946 1.16451 9.94484 1.23483 10.0152C1.30516 10.0855 1.40054 10.125 1.5 10.125H11.25C11.3495 10.125 11.4448 10.0855 11.5152 10.0152C11.5855 9.94484 11.625 9.84946 11.625 9.75ZM6 5.2725V4.875C6 4.77554 6.03951 4.68016 6.10983 4.60984C6.18016 4.53951 6.27554 4.5 6.375 4.5C6.47446 4.5 6.56984 4.53951 6.64017 4.60984C6.71049 4.68016 6.75 4.77554 6.75 4.875V5.2725C7.34763 5.34441 7.90943 5.59577 8.36131 5.99343C8.81319 6.39108 9.13394 6.91637 9.28125 7.5H3.46875C3.61606 6.91637 3.93681 6.39108 4.38869 5.99343C4.84057 5.59577 5.40237 5.34441 6 5.2725ZM10.125 9H2.625V8.25H10.125V9Z" fill="white"/>
</svg>
