<svg width="48" height="48" viewBox="0 0 48 48" fill="none" xmlns="http://www.w3.org/2000/svg">
<circle cx="24" cy="24" r="24" fill="url(#paint0_linear_152_3984)"/>
<path d="M31.7888 26.625L30.7125 22.875H28.125V26.25C28.125 26.7473 27.9275 27.2242 27.5758 27.5758C27.2242 27.9275 26.7473 28.125 26.25 28.125H25.5V27.375C25.4993 27.006 25.4208 26.6412 25.2696 26.3046C25.1184 25.9679 24.8979 25.6669 24.6225 25.4213C24.9161 25.3202 25.1642 25.1181 25.3225 24.8511C25.4808 24.584 25.539 24.2694 25.4867 23.9633C25.4344 23.6573 25.2751 23.3798 25.0371 23.1805C24.7991 22.9811 24.498 22.8728 24.1875 22.875H18.9375C18.6459 22.8742 18.3624 22.9707 18.132 23.1493C17.9015 23.3279 17.7373 23.5783 17.6654 23.8609C17.5935 24.1434 17.6179 24.4419 17.7349 24.7089C17.852 24.976 18.0548 25.1963 18.3112 25.335C17.537 25.7525 16.8902 26.3717 16.4392 27.1269C15.9883 27.8822 15.7502 28.7454 15.75 29.625C15.75 29.7245 15.7895 29.8198 15.8598 29.8902C15.9302 29.9605 16.0255 30 16.125 30H16.875C16.875 30.8951 17.2306 31.7535 17.8635 32.3865C18.4964 33.0194 19.3549 33.375 20.25 33.375C21.1451 33.375 22.0035 33.0194 22.6365 32.3865C23.2694 31.7535 23.625 30.8951 23.625 30H28.125C28.1274 30.6547 28.3202 31.2945 28.6798 31.8416C29.0394 32.3886 29.5504 32.8193 30.1504 33.0811C30.7505 33.3428 31.4138 33.4245 32.0594 33.3159C32.705 33.2074 33.3051 32.9135 33.7866 32.4699C34.2682 32.0264 34.6103 31.4523 34.7713 30.8178C34.9323 30.1832 34.9053 29.5155 34.6936 28.896C34.4818 28.2765 34.0945 27.732 33.5787 27.3288C33.0629 26.9255 32.441 26.681 31.7888 26.625V26.625ZM20.25 31.5C19.9533 31.5 19.6633 31.412 19.4166 31.2472C19.17 31.0824 18.9777 30.8481 18.8642 30.574C18.7506 30.2999 18.7209 29.9983 18.7788 29.7074C18.8367 29.4164 18.9796 29.1491 19.1893 28.9393C19.3991 28.7296 19.6664 28.5867 19.9574 28.5288C20.2483 28.4709 20.5499 28.5006 20.824 28.6142C21.0981 28.7277 21.3324 28.92 21.4972 29.1666C21.662 29.4133 21.75 29.7033 21.75 30C21.75 30.3978 21.592 30.7794 21.3107 31.0607C21.0294 31.342 20.6478 31.5 20.25 31.5ZM31.5 31.5C31.2033 31.5 30.9133 31.412 30.6666 31.2472C30.42 31.0824 30.2277 30.8481 30.1142 30.574C30.0006 30.2999 29.9709 29.9983 30.0288 29.7074C30.0867 29.4164 30.2296 29.1491 30.4393 28.9393C30.6491 28.7296 30.9164 28.5867 31.2074 28.5288C31.4983 28.4709 31.7999 28.5006 32.074 28.6142C32.3481 28.7277 32.5824 28.92 32.7472 29.1666C32.912 29.4133 33 29.7033 33 30C33 30.3978 32.842 30.7794 32.5607 31.0607C32.2794 31.342 31.8978 31.5 31.5 31.5ZM28.125 18.75V21.75C28.125 21.8495 28.1645 21.9448 28.2348 22.0152C28.3052 22.0855 28.4005 22.125 28.5 22.125H31.125C31.4234 22.125 31.7095 22.0065 31.9205 21.7955C32.1315 21.5845 32.25 21.2984 32.25 21V19.5C32.25 19.2016 32.1315 18.9155 31.9205 18.7045C31.7095 18.4935 31.4234 18.375 31.125 18.375H28.5C28.4005 18.375 28.3052 18.4145 28.2348 18.4848C28.1645 18.5552 28.125 18.6505 28.125 18.75ZM23.625 21.75V15.75C23.625 15.6505 23.5855 15.5552 23.5152 15.4848C23.4448 15.4145 23.3495 15.375 23.25 15.375H13.5C13.4005 15.375 13.3052 15.4145 13.2348 15.4848C13.1645 15.5552 13.125 15.6505 13.125 15.75V21.75C13.125 21.8495 13.1645 21.9448 13.2348 22.0152C13.3052 22.0855 13.4005 22.125 13.5 22.125H23.25C23.3495 22.125 23.4448 22.0855 23.5152 22.0152C23.5855 21.9448 23.625 21.8495 23.625 21.75ZM18 17.2725V16.875C18 16.7755 18.0395 16.6802 18.1098 16.6098C18.1802 16.5395 18.2755 16.5 18.375 16.5C18.4745 16.5 18.5698 16.5395 18.6402 16.6098C18.7105 16.6802 18.75 16.7755 18.75 16.875V17.2725C19.3476 17.3444 19.9094 17.5958 20.3613 17.9934C20.8132 18.3911 21.1339 18.9164 21.2812 19.5H15.4688C15.6161 18.9164 15.9368 18.3911 16.3887 17.9934C16.8406 17.5958 17.4024 17.3444 18 17.2725V17.2725ZM22.125 21H14.625V20.25H22.125V21Z" fill="white"/>
<defs>
<linearGradient id="paint0_linear_152_3984" x1="28.5" y1="24" x2="43.5" y2="52.875" gradientUnits="userSpaceOnUse">
<stop stop-color="#E02B45"/>
<stop offset="1" stop-color="#FCC134"/>
</linearGradient>
</defs>
</svg>
