<svg width="40" height="40" viewBox="0 0 40 40" fill="none" xmlns="http://www.w3.org/2000/svg">
<circle cx="20" cy="20" r="20" fill="url(#paint0_linear_110_1798)"/>
<path d="M27.7888 22.625L26.7125 18.875H24.125V22.25C24.125 22.7473 23.9275 23.2242 23.5758 23.5758C23.2242 23.9275 22.7473 24.125 22.25 24.125H21.5V23.375C21.4993 23.006 21.4208 22.6412 21.2696 22.3046C21.1184 21.9679 20.8979 21.6669 20.6225 21.4213C20.9161 21.3202 21.1642 21.1181 21.3225 20.8511C21.4808 20.584 21.539 20.2694 21.4867 19.9633C21.4344 19.6573 21.2751 19.3798 21.0371 19.1805C20.7991 18.9811 20.498 18.8728 20.1875 18.875H14.9375C14.6459 18.8742 14.3624 18.9707 14.132 19.1493C13.9015 19.3279 13.7373 19.5783 13.6654 19.8609C13.5935 20.1434 13.6179 20.4419 13.7349 20.7089C13.852 20.976 14.0548 21.1963 14.3112 21.335C13.537 21.7525 12.8902 22.3717 12.4392 23.1269C11.9883 23.8822 11.7502 24.7454 11.75 25.625C11.75 25.7245 11.7895 25.8198 11.8598 25.8902C11.9302 25.9605 12.0255 26 12.125 26H12.875C12.875 26.8951 13.2306 27.7535 13.8635 28.3865C14.4964 29.0194 15.3549 29.375 16.25 29.375C17.1451 29.375 18.0035 29.0194 18.6365 28.3865C19.2694 27.7535 19.625 26.8951 19.625 26H24.125C24.1274 26.6547 24.3202 27.2945 24.6798 27.8416C25.0394 28.3886 25.5504 28.8193 26.1504 29.0811C26.7505 29.3428 27.4138 29.4245 28.0594 29.3159C28.705 29.2074 29.3051 28.9135 29.7866 28.4699C30.2682 28.0264 30.6103 27.4523 30.7713 26.8178C30.9323 26.1832 30.9053 25.5155 30.6936 24.896C30.4818 24.2765 30.0945 23.732 29.5787 23.3288C29.0629 22.9255 28.441 22.681 27.7888 22.625V22.625ZM16.25 27.5C15.9533 27.5 15.6633 27.412 15.4166 27.2472C15.17 27.0824 14.9777 26.8481 14.8642 26.574C14.7506 26.2999 14.7209 25.9983 14.7788 25.7074C14.8367 25.4164 14.9796 25.1491 15.1893 24.9393C15.3991 24.7296 15.6664 24.5867 15.9574 24.5288C16.2483 24.4709 16.5499 24.5006 16.824 24.6142C17.0981 24.7277 17.3324 24.92 17.4972 25.1666C17.662 25.4133 17.75 25.7033 17.75 26C17.75 26.3978 17.592 26.7794 17.3107 27.0607C17.0294 27.342 16.6478 27.5 16.25 27.5ZM27.5 27.5C27.2033 27.5 26.9133 27.412 26.6666 27.2472C26.42 27.0824 26.2277 26.8481 26.1142 26.574C26.0006 26.2999 25.9709 25.9983 26.0288 25.7074C26.0867 25.4164 26.2296 25.1491 26.4393 24.9393C26.6491 24.7296 26.9164 24.5867 27.2074 24.5288C27.4983 24.4709 27.7999 24.5006 28.074 24.6142C28.3481 24.7277 28.5824 24.92 28.7472 25.1666C28.912 25.4133 29 25.7033 29 26C29 26.3978 28.842 26.7794 28.5607 27.0607C28.2794 27.342 27.8978 27.5 27.5 27.5ZM24.125 14.75V17.75C24.125 17.8495 24.1645 17.9448 24.2348 18.0152C24.3052 18.0855 24.4005 18.125 24.5 18.125H27.125C27.4234 18.125 27.7095 18.0065 27.9205 17.7955C28.1315 17.5845 28.25 17.2984 28.25 17V15.5C28.25 15.2016 28.1315 14.9155 27.9205 14.7045C27.7095 14.4935 27.4234 14.375 27.125 14.375H24.5C24.4005 14.375 24.3052 14.4145 24.2348 14.4848C24.1645 14.5552 24.125 14.6505 24.125 14.75ZM19.625 17.75V11.75C19.625 11.6505 19.5855 11.5552 19.5152 11.4848C19.4448 11.4145 19.3495 11.375 19.25 11.375H9.5C9.40054 11.375 9.30516 11.4145 9.23483 11.4848C9.16451 11.5552 9.125 11.6505 9.125 11.75V17.75C9.125 17.8495 9.16451 17.9448 9.23483 18.0152C9.30516 18.0855 9.40054 18.125 9.5 18.125H19.25C19.3495 18.125 19.4448 18.0855 19.5152 18.0152C19.5855 17.9448 19.625 17.8495 19.625 17.75ZM14 13.2725V12.875C14 12.7755 14.0395 12.6802 14.1098 12.6098C14.1802 12.5395 14.2755 12.5 14.375 12.5C14.4745 12.5 14.5698 12.5395 14.6402 12.6098C14.7105 12.6802 14.75 12.7755 14.75 12.875V13.2725C15.3476 13.3444 15.9094 13.5958 16.3613 13.9934C16.8132 14.3911 17.1339 14.9164 17.2812 15.5H11.4688C11.6161 14.9164 11.9368 14.3911 12.3887 13.9934C12.8406 13.5958 13.4024 13.3444 14 13.2725V13.2725ZM18.125 17H10.625V16.25H18.125V17Z" fill="white"/>
<defs>
<linearGradient id="paint0_linear_110_1798" x1="23.75" y1="20" x2="36.25" y2="44.0625" gradientUnits="userSpaceOnUse">
<stop stop-color="#E02B45"/>
<stop offset="1" stop-color="#FCC134"/>
</linearGradient>
</defs>
</svg>
