<svg width="40" height="40" viewBox="0 0 40 40" fill="none" xmlns="http://www.w3.org/2000/svg">
<path d="M37.2685 8.00928H2.73101C1.39584 8.00928 0.313477 9.09164 0.313477 10.4268V30.7636C0.313477 32.0988 1.39584 33.1811 2.73101 33.1811H37.2685C38.6037 33.1811 39.686 32.0988 39.686 30.7636V10.4268C39.686 9.09164 38.6037 8.00928 37.2685 8.00928Z" fill="url(#paint0_linear_160_640)"/>
<path fill-rule="evenodd" clip-rule="evenodd" d="M10.8144 20.3553L10.9897 19.6633C11.6633 19.4603 13.0381 19.368 13.2965 20.0969C13.4441 20.5214 13.0197 22.2838 12.9366 22.8005L12.2815 22.8097C12.1338 22.6252 12.2538 22.9666 12.1523 22.5145C11.5248 23.0773 10.1869 22.9851 10.2884 21.8501C10.3899 20.7244 11.368 20.872 12.4291 20.7059C12.4107 19.9862 11.5064 20.18 10.8051 20.3461L10.8144 20.3553ZM15.7509 20.2446C15.1511 20.2446 15.0589 20.1154 14.5329 20.3461C14.5975 21.0012 14.9389 20.7428 15.4095 21.0566C16.3045 21.6471 15.3449 23.4741 13.2134 22.6898L13.3334 22.0254C13.9332 22.1454 14.2376 22.2653 14.699 22.007C14.8097 21.075 13.1581 21.684 13.6194 20.1892C13.8686 19.3772 14.9666 19.4879 15.8709 19.571L15.7417 20.2446H15.7509ZM6.5606 18.8328L7.97237 18.8789L8.12 21.0935L8.88586 19.3218C9.14423 18.6852 8.96891 18.8236 10.5929 18.842L9.86395 22.8005L9.07041 22.7913L9.50409 19.9493L8.33223 22.8097L7.38183 22.7821C7.35414 22.2284 7.30801 20.2815 7.16037 19.9124L6.68056 22.7913L5.85011 22.7821L6.5606 18.8328ZM20.0231 27.2388L20.4107 26.7774C19.6356 26.6759 19.4972 26.8974 19.1465 26.2699L20.9274 26.2515C21.0381 26.0669 21.2227 25.8916 21.3149 25.6794C19.2849 25.541 18.7129 26.0577 18.3899 25.1719H21.6471L22.007 24.609L17.9839 24.5906L17.7994 24.12L22.1362 24.1015C22.3853 23.9631 22.3853 23.8063 22.4499 23.5202L18.3438 23.511C17.6056 23.5202 17.5594 23.6863 17.421 23.0127H22.5883L22.7544 22.4406L21.2411 22.4222L21.1673 22.8097L20.2999 22.7728L20.8443 19.5525L21.6656 19.6633C21.6656 19.6817 21.684 19.7463 21.684 19.774C21.684 19.7924 21.6932 19.8201 21.6932 19.8293L21.7394 19.9954C21.9701 19.7186 22.1177 19.5156 22.6529 19.5341L22.3761 20.2815C22.2192 20.4845 21.7578 20.2538 21.5641 20.8074L22.4683 20.8443C22.5698 20.263 22.6806 20.0877 22.8466 19.6171L22.8559 19.3403L17.1996 19.3495L17.1811 19.5525C17.4856 19.5525 17.4764 19.4972 17.6517 19.6448L17.5687 20.1892C16.9966 20.3276 17.015 19.9862 16.9597 20.7336C17.0427 20.872 16.9412 20.7982 17.1165 20.8443L17.4764 20.8536C18.0577 18.962 19.7924 19.3772 20.1892 19.9677C20.4014 20.2815 20.6137 21.3149 20.0877 21.398L18.3253 21.4164C18.4084 22.3484 19.4787 22.1546 20.1708 21.9239C20.1431 22.3115 20.1708 22.6252 19.8109 22.7544C19.5248 22.8559 18.9251 22.8282 18.6114 22.7544C17.8363 22.5791 17.5041 22.1915 17.4487 21.3518L17.1165 21.3426C16.812 21.2042 17.052 21.3426 16.8951 20.9643C16.7659 21.7394 16.4153 22.2376 17.3749 22.1269C17.3195 22.5883 17.3841 22.7451 16.8766 22.8005C15.4003 22.9758 15.8801 21.9885 16.12 20.669C16.4983 18.5652 16.203 18.8236 17.2734 18.842L22.7728 18.8513L22.6621 18.2792L17.3472 18.2607L17.4487 17.7994L22.4776 17.7717C22.3484 16.9874 22.3207 17.1811 20.4937 17.1811H17.7071C17.9009 16.5075 17.7994 16.6921 19.6079 16.6921H22.0531L21.7947 16.1108L18.2515 16.1015L18.4914 15.6217L21.4533 15.6033C21.075 14.8282 21.0935 15.0496 18.9989 15.0127C19.2665 14.3484 19.7371 14.5145 20.5583 14.5145C20.3276 14.1454 20.1615 14.1731 20.0231 13.8593C19.6817 13.684 19.3772 13.3703 19.0358 13.1304C16.4245 11.2849 12.8812 11.0912 10.0393 12.4752C7.48333 13.7117 4.97352 16.5721 5.0012 20.5306C5.03811 26.1869 10.0024 30.3115 15.6217 29.3518C18.2607 28.8997 18.9251 27.8293 20.0139 27.2296L20.0231 27.2388Z" fill="#E41D2C"/>
<path fill-rule="evenodd" clip-rule="evenodd" d="M26.0487 19.6356C28.9091 19.0543 28.4385 20.4661 28.2078 21.6103C28.134 21.9517 28.134 22.6252 27.8664 22.8098C27.8018 22.8098 27.4235 22.819 27.3866 22.8006C27.1282 22.6991 27.2482 23.0036 27.2113 22.533C26.4362 22.9759 25.209 23.0774 25.3566 21.8409C25.4766 20.8536 26.4731 20.6968 27.4881 20.7429C27.4512 20.0139 26.7868 20.1339 25.8641 20.3646L26.0579 19.6356H26.0487ZM28.8722 19.5526L29.6381 19.5618C29.6473 19.5803 29.6565 19.6079 29.6565 19.6264L29.7765 19.9678C29.9149 19.7556 30.1732 19.571 30.5792 19.5618L30.4685 20.2169L30.0902 20.3646C29.3336 20.6137 29.3797 21.5641 29.1767 22.8098H28.3186L28.8722 19.5526ZM32.9414 18.8513H33.7257L33.0521 22.819C32.1755 22.8282 32.3878 22.8744 32.1109 22.5422C31.5389 23.3911 29.8226 22.6068 30.3485 20.8536C30.7361 19.5434 32.0464 19.1927 32.6923 19.9678L32.9506 18.8421L32.9414 18.8513ZM20.0325 13.8686C20.1709 14.1823 20.3462 14.1547 20.5677 14.5238C19.7465 14.5238 19.2759 14.3484 19.0083 15.022C21.1029 15.0589 21.0844 14.8375 21.4627 15.6126L18.5008 15.631L18.2609 16.1108L21.8041 16.1201L22.0625 16.7014H19.6173C17.818 16.7014 17.9103 16.5261 17.7165 17.1904H20.5031C22.3301 17.1904 22.3578 16.9966 22.487 17.781L17.4581 17.8086L17.3566 18.27L22.6715 18.2885L22.7822 18.8605L17.2828 18.8513L17.209 19.368L22.8653 19.3588L22.856 19.6356C23.2805 19.2296 23.2067 19.0174 24.0002 18.7867C24.6554 18.6022 25.0706 18.7406 25.7165 18.879L25.5781 19.7279C24.4708 19.3957 23.7511 19.4788 23.4927 20.6229C23.2067 21.8502 24.1755 22.3115 25.1998 21.8225C25.1075 22.7175 24.9598 22.939 23.9079 22.8006C23.179 22.7083 22.9575 22.3577 22.6346 21.924H21.3151L21.2413 22.4315L22.7545 22.4499L22.5885 23.022H17.4212C17.5596 23.6956 17.6058 23.5295 18.3439 23.5203L22.45 23.5295C22.3762 23.8063 22.3855 23.9724 22.1363 24.1108L17.7995 24.1293L17.9841 24.5999L22.0071 24.6183L21.6473 25.1812H18.3901C18.713 26.0578 19.2851 25.5503 21.3151 25.6887C21.2228 25.9009 21.0383 26.0762 20.9276 26.2608L19.1467 26.2792C19.4881 26.8975 19.6357 26.6852 20.4108 26.7867L20.0233 27.2481C21.3428 28.2169 22.367 29.0289 24.4985 29.398C26.4362 29.7302 28.457 29.3611 30.0164 28.5953C36.7707 25.2642 36.5861 15.6679 29.961 12.4938C27.5804 11.3588 24.4247 11.2573 21.961 12.5491C20.7707 13.1674 20.4846 13.6103 20.0417 13.8778L20.0325 13.8686Z" fill="#F8B02B"/>
<path fill-rule="evenodd" clip-rule="evenodd" d="M5.84961 22.791L6.68006 22.8002L7.15987 19.9213C7.30751 20.2904 7.35365 22.2374 7.38133 22.791L8.33173 22.8187L9.50359 19.9582L9.06991 22.8002L9.86345 22.8095L10.5924 18.851C8.96841 18.8325 9.14373 18.6941 8.88536 19.3308L8.11951 21.1024L7.97187 18.8879L6.56011 18.8417L5.84961 22.791ZM31.5566 22.062C30.8646 21.3515 31.4551 20.1705 32.101 20.3273C32.7377 20.4842 32.6178 22.0436 31.5566 22.062ZM32.6824 19.9675C32.0365 19.1924 30.7354 19.543 30.3387 20.8533C29.8127 22.5972 31.529 23.3908 32.101 22.5419C32.3779 22.874 32.1656 22.8187 33.0422 22.8187L33.7158 18.851H32.9315L32.6731 19.9767L32.6824 19.9675ZM26.3433 22.0713C26.2141 21.453 26.7862 21.2131 27.3306 21.3239C27.3583 21.9513 26.9154 22.2927 26.3433 22.0713ZM26.048 19.6445L25.8542 20.3735C26.7769 20.152 27.4505 20.0321 27.4782 20.7518C26.4632 20.7056 25.4667 20.8625 25.3467 21.8498C25.1899 23.0863 26.4263 22.9848 27.2014 22.5419C27.2383 23.0124 27.1184 22.708 27.3767 22.8095C27.4136 22.8279 27.7919 22.8187 27.8565 22.8187C28.1333 22.6434 28.1333 21.9605 28.1979 21.6191C28.4378 20.4657 28.8992 19.0632 26.0388 19.6445H26.048ZM12.281 21.2962C12.2994 21.6099 12.2441 21.8498 12.0411 22.0067C11.9027 22.1082 11.4874 22.2281 11.3214 22.0713C10.8046 21.6007 11.7735 21.287 12.2718 21.2962H12.281ZM10.8139 20.355C11.5151 20.1889 12.4194 19.9951 12.4378 20.7149C11.3767 20.881 10.3986 20.7333 10.2971 21.859C10.1864 22.994 11.5243 23.0863 12.161 22.5234C12.2625 22.9755 12.1426 22.6341 12.2902 22.8187L12.9453 22.8095C13.0284 22.2835 13.4528 20.5303 13.3052 20.1059C13.0468 19.3677 11.6812 19.46 10.9984 19.6722L10.8231 20.3642L10.8139 20.355ZM18.4632 20.8164C18.5832 20.3458 18.7862 20.152 19.3306 20.2258C19.5243 20.5026 19.5243 20.4196 19.5613 20.8164H18.4632ZM17.4851 20.8625L17.4482 21.3608C17.5036 22.2005 17.845 22.5788 18.6109 22.7633C18.9246 22.8371 19.5243 22.8648 19.8104 22.7633C20.1703 22.6434 20.1426 22.3204 20.1703 21.9329C19.4782 22.1635 18.4079 22.3573 18.3248 21.4254L20.0872 21.4069C20.6132 21.3239 20.4009 20.2996 20.1887 19.9767C19.7919 19.3862 18.0572 18.9709 17.4759 20.8625H17.4851ZM22.8554 19.6353C22.6893 20.1059 22.5786 20.2812 22.4771 20.8625V21.37L22.6339 21.9329C22.9569 22.3665 23.1783 22.7172 23.9073 22.8095C24.9592 22.9479 25.1068 22.7264 25.1991 21.8314C24.1656 22.3204 23.206 21.859 23.4921 20.6318C23.7596 19.4784 24.4794 19.4046 25.5774 19.7368L25.7158 18.8879C25.0699 18.7587 24.6547 18.6203 23.9996 18.7956C23.206 19.0171 23.2798 19.2385 22.8554 19.6445V19.6353ZM15.8704 19.5707C14.9661 19.4969 13.8681 19.3769 13.6189 20.1889C13.1576 21.6837 14.8 21.0747 14.6985 22.0067C14.2279 22.265 13.9327 22.1451 13.3329 22.0251L13.2129 22.6895C15.3444 23.4738 16.2948 21.656 15.409 21.0563C14.9384 20.7426 14.597 21.0101 14.5324 20.3458C15.0584 20.1059 15.1414 20.2443 15.7504 20.2443L15.8796 19.5707H15.8704Z" fill="#FEFEFE"/>
<path fill-rule="evenodd" clip-rule="evenodd" d="M16.9041 20.9736L16.9687 20.7522C17.024 20.0047 17.0056 20.3462 17.5777 20.2077L17.6607 19.6633C17.4854 19.5157 17.4946 19.5711 17.1901 19.5711L17.2086 19.3681L17.2824 18.8513C16.212 18.8329 16.5073 18.5745 16.129 20.6783C15.8891 21.9978 15.4093 22.9851 16.8856 22.8098C17.3839 22.7545 17.3285 22.5976 17.3839 22.1362C16.4335 22.247 16.7841 21.7487 16.9041 20.9736ZM21.2409 22.4407L21.3147 21.9332L21.407 21.3796L21.5731 20.826C21.7761 20.2723 22.2374 20.503 22.3851 20.3L22.6619 19.5526C22.1175 19.5342 21.9698 19.7372 21.7484 20.014L21.7022 19.8479C21.7022 19.8387 21.693 19.811 21.693 19.7925C21.693 19.7741 21.6746 19.7003 21.6746 19.6818L20.8533 19.5711L20.3089 22.7914L21.1763 22.8283L21.2501 22.4407H21.2409ZM28.3182 22.8098H29.1763C29.3793 21.5641 29.3332 20.6137 30.0898 20.3646L30.4681 20.217L30.5788 19.5618C30.1728 19.5711 29.9145 19.7556 29.7761 19.9678L29.6561 19.6264C29.6469 19.608 29.6469 19.5803 29.6376 19.5618L28.8718 19.5526L28.3182 22.8098Z" fill="#FEFEFE"/>
<path fill-rule="evenodd" clip-rule="evenodd" d="M31.5566 22.0624C32.627 22.0439 32.7469 20.4845 32.101 20.3277C31.4459 20.1708 30.8646 21.3519 31.5566 22.0624Z" fill="#F8B02B"/>
<path fill-rule="evenodd" clip-rule="evenodd" d="M12.2814 21.2966C11.7831 21.2874 10.8143 21.6011 11.331 22.0717C11.4971 22.2193 11.9123 22.0994 12.0507 22.0071C12.2537 21.8594 12.2999 21.6103 12.2906 21.2966H12.2814ZM21.3149 21.924L22.6344 21.9333L22.4775 21.3704H21.4071L21.3149 21.924Z" fill="#E41D2C"/>
<path fill-rule="evenodd" clip-rule="evenodd" d="M26.3438 22.0713C26.9251 22.2835 27.3588 21.9514 27.3311 21.3239C26.7775 21.2224 26.2146 21.4623 26.3438 22.0713ZM21.4072 21.37H22.4776V20.8625L21.5733 20.8164L21.4072 21.37Z" fill="#F8B02B"/>
<path fill-rule="evenodd" clip-rule="evenodd" d="M18.4639 20.8167H19.5619C19.5342 20.4292 19.525 20.503 19.3312 20.2262C18.7868 20.1524 18.5838 20.3461 18.4639 20.8167Z" fill="#E41D2C"/>
<path fill-rule="evenodd" clip-rule="evenodd" d="M16.9043 20.9734C17.0612 21.3517 16.8213 21.2133 17.1258 21.3517L17.4579 21.3609L17.4948 20.8626L17.135 20.8534C16.9504 20.8165 17.0519 20.8811 16.9781 20.7427L16.9135 20.9641L16.9043 20.9734Z" fill="#F8B02B"/>
<defs>
<linearGradient id="paint0_linear_160_640" x1="19.9994" y1="8.01278" x2="19.9994" y2="33.1866" gradientUnits="userSpaceOnUse">
<stop stop-color="#1D4C80"/>
<stop offset="1" stop-color="#173A63"/>
</linearGradient>
</defs>
</svg>
