<svg width="16" height="13" viewBox="0 0 16 13" fill="none" xmlns="http://www.w3.org/2000/svg">
<path d="M0.00300002 2.384L8 6.382L15.997 2.384C15.9674 1.87444 15.7441 1.39549 15.3728 1.04523C15.0016 0.694965 14.5104 0.499906 14 0.5H2C1.48958 0.499906 0.998447 0.694965 0.627178 1.04523C0.255908 1.39549 0.0326041 1.87444 0.00300002 2.384Z" fill="#C4C4C4"/>
<path d="M16 4.618L8 8.618L0 4.618V10.5C0 11.0304 0.210714 11.5391 0.585786 11.9142C0.960859 12.2893 1.46957 12.5 2 12.5H14C14.5304 12.5 15.0391 12.2893 15.4142 11.9142C15.7893 11.5391 16 11.0304 16 10.5V4.618Z" fill="#C4C4C4"/>
</svg>
