<svg width="63" height="68" viewBox="0 0 63 68" fill="none" xmlns="http://www.w3.org/2000/svg">
<path d="M41.3593 43.5427V48.3508H46.1674V43.5427H41.3593ZM13.4145 0.798425L1.39416 10.4147C0.596013 11.0494 0.490234 12.1456 0.490234 13.1072V21.9061C0.490234 24.6131 1.38455 27.1085 2.8943 29.1183V65.1793C2.8943 65.8169 3.14758 66.4283 3.59843 66.8792C4.04928 67.33 4.66076 67.5833 5.29836 67.5833H12.5106V41.1386C12.5106 40.501 12.7638 39.8895 13.2147 39.4387C13.6655 38.9878 14.277 38.7346 14.9146 38.7346H29.339C29.9766 38.7346 30.5881 38.9878 31.0389 39.4387C31.4898 39.8895 31.7431 40.501 31.7431 41.1386V67.5833H58.1878C58.8254 67.5833 59.4368 67.33 59.8877 66.8792C60.3385 66.4283 60.5918 65.8169 60.5918 65.1793V29.1183C62.1016 27.1085 62.9959 24.6131 62.9959 21.9061V13.088C62.9959 12.1264 62.8901 11.0494 62.092 10.4147L50.0716 0.798425C49.6461 0.457016 49.1171 0.270503 48.5715 0.269531H14.9146C14.369 0.270503 13.84 0.457016 13.4145 0.798425ZM5.29836 21.9061V14.6939H19.7227V21.9061C19.7227 23.8189 18.9629 25.6533 17.6103 27.0059C16.2578 28.3584 14.4233 29.1183 12.5106 29.1183C10.5978 29.1183 8.76331 28.3584 7.41076 27.0059C6.05822 25.6533 5.29836 23.8189 5.29836 21.9061ZM24.5309 21.9061V14.6939H38.9553V21.9061C38.9553 23.8189 38.1954 25.6533 36.8429 27.0059C35.4903 28.3584 33.6559 29.1183 31.7431 29.1183C29.8303 29.1183 27.9958 28.3584 26.6433 27.0059C25.2907 25.6533 24.5309 23.8189 24.5309 21.9061ZM43.7634 21.9061V14.6939H58.1878V21.9061C58.1878 23.8189 57.4279 25.6533 56.0754 27.0059C54.7228 28.3584 52.8884 29.1183 50.9756 29.1183C49.0628 29.1183 47.2283 28.3584 45.8758 27.0059C44.5232 25.6533 43.7634 23.8189 43.7634 21.9061ZM9.74588 9.88579L15.756 5.07766H22.2711L20.468 9.88579H9.74588ZM25.5983 9.88579L27.4013 5.07766H36.0223L37.6234 9.88579H25.5983ZM41.0901 5.07766H47.7253L53.7354 9.88579H42.6912L41.0901 5.07766ZM36.5512 41.1386C36.5512 40.501 36.8045 39.8895 37.2553 39.4387C37.7062 38.9878 38.3177 38.7346 38.9553 38.7346H48.5715C49.2091 38.7346 49.8206 38.9878 50.2714 39.4387C50.7223 39.8895 50.9756 40.501 50.9756 41.1386V50.7549C50.9756 51.3925 50.7223 52.004 50.2714 52.4548C49.8206 52.9057 49.2091 53.1589 48.5715 53.1589H38.9553C38.3177 53.1589 37.7062 52.9057 37.2553 52.4548C36.8045 52.004 36.5512 51.3925 36.5512 50.7549V41.1386ZM17.3187 67.5833H26.9349V43.5427H17.3187V67.5833Z" fill="#E02B45"/>
</svg>
