<svg width="64" height="73" viewBox="0 0 64 73" fill="none" xmlns="http://www.w3.org/2000/svg">
<g clip-path="url(#clip0_152_4015)">
<path d="M57.3287 51.2806V46.8388C57.1259 44.8018 56.2732 42.9212 54.9332 41.5559C53.5931 40.1905 51.8595 39.4358 50.063 39.4358C48.2666 39.4358 46.533 40.1905 45.1929 41.5559C43.8529 42.9212 43.0002 44.8018 42.7974 46.8388V51.2806C41.9896 51.3429 41.2289 51.7373 40.6564 52.3907C40.0838 53.0441 39.7382 53.9121 39.6836 54.834V65.1982C39.6871 66.1679 40.0087 67.1009 40.585 67.8134C41.1614 68.526 41.9507 68.9663 42.7974 69.0478H57.0692C57.9189 69.0438 58.7365 68.6768 59.3609 68.019C59.9853 67.3613 60.3711 66.4606 60.4425 65.4943V55.1301C60.439 54.1604 60.1174 53.2274 59.541 52.5149C58.9647 51.8024 58.1754 51.362 57.3287 51.2806ZM46.1707 46.8388C46.1949 46.2904 46.3161 45.7532 46.5269 45.2597C46.7377 44.7661 47.0338 44.3263 47.3974 43.9666C47.761 43.607 48.1846 43.3351 48.6427 43.1671C49.1008 42.9991 49.5839 42.9386 50.063 42.9892C50.5422 42.9386 51.0253 42.9991 51.4834 43.1671C51.9415 43.3351 52.3651 43.607 52.7287 43.9666C53.0923 44.3263 53.3884 44.7661 53.5992 45.2597C53.81 45.7532 53.9311 46.2904 53.9553 46.8388V51.2806H46.1707V46.8388Z" fill="#E02B45"/>
<path d="M63.0374 33.5133V6.86258C63.0374 5.29186 62.4907 3.78548 61.5174 2.67481C60.5441 1.56415 59.2241 0.940186 57.8477 0.940186L5.95047 0.940186C4.57407 0.940186 3.25404 1.56415 2.28078 2.67481C1.30752 3.78548 0.760742 5.29186 0.760742 6.86258L0.760742 60.1641C0.760742 61.7348 1.30752 63.2412 2.28078 64.3519C3.25404 65.4625 4.57407 66.0865 5.95047 66.0865H34.4939V60.1641H5.95047V6.86258H57.8477V33.5133" fill="#E02B45"/>
<path d="M16.3303 12.7849H11.1406V18.7073H16.3303V12.7849ZM52.6584 12.7849H21.5201V18.7073H52.6584V12.7849ZM34.4944 48.3193H21.5201V54.2417H34.4944V48.3193ZM16.3303 48.3193H11.1406V54.2417H16.3303V48.3193ZM26.7098 24.6297H21.5201V30.5521H26.7098V24.6297ZM52.6584 24.6297H31.8995V30.5521H52.6584V24.6297ZM39.1859 36.4745H31.8995V42.3969H37.6082V40.9163C37.6356 39.2642 38.1975 37.682 39.1859 36.4745ZM26.7098 36.4745H21.5201V42.3969H26.7098V36.4745Z" fill="#E02B45"/>
</g>
<defs>
<clipPath id="clip0_152_4015">
<rect width="62.2767" height="71.0687" fill="white" transform="translate(0.760742 0.940186)"/>
</clipPath>
</defs>
</svg>
