<svg width="38" height="41" viewBox="0 0 38 41" fill="none" xmlns="http://www.w3.org/2000/svg">
<path d="M29.4861 20.7095L28.5007 9.98945C28.4564 9.50695 28.0517 9.13773 27.5671 9.13773H21.8425V6.95969C21.8425 3.57008 19.0848 0.8125 15.6953 0.8125C12.3057 0.8125 9.54808 3.57008 9.54808 6.95969V9.13766H3.82324C3.33871 9.13766 2.93402 9.50688 2.88965 9.98938L0.852926 32.1487C0.774176 33.0061 1.03925 33.7955 1.61949 34.4316C2.19988 35.0677 2.96168 35.4039 3.82269 35.4039H18.8487C20.5761 38.268 23.7176 40.1875 27.2993 40.1875C32.7368 40.1875 37.1607 35.7637 37.1607 30.3261C37.1607 25.6399 33.8748 21.707 29.4861 20.7095ZM11.4231 6.95969C11.4231 4.60398 13.3396 2.6875 15.6953 2.6875C18.051 2.6875 19.9675 4.60398 19.9675 6.95969V9.13766H11.4231V6.95969ZM3.82269 33.5289C3.48933 33.5289 3.22941 33.4141 3.00472 33.1678C2.78004 32.9216 2.68965 32.6522 2.72011 32.3202L4.67855 11.0127H9.54808V12.722C9.54808 13.2398 9.96785 13.6595 10.4856 13.6595C11.0033 13.6595 11.4231 13.2398 11.4231 12.722V11.0127H19.9675V12.722C19.9675 13.2398 20.3873 13.6595 20.905 13.6595C21.4228 13.6595 21.8425 13.2398 21.8425 12.722V11.0127H26.712L27.5812 20.4691C27.4875 20.4664 27.3936 20.4648 27.2993 20.4648C21.8618 20.4648 17.4379 24.8886 17.4379 30.3262C17.4379 31.4468 17.6262 32.5242 17.9722 33.5289H3.82269ZM27.2993 38.3125C22.8955 38.3125 19.3128 34.7298 19.3128 30.3261C19.3128 25.9223 22.8955 22.3397 27.2993 22.3397C31.7029 22.3397 35.2857 25.9223 35.2857 30.3261C35.2857 34.7298 31.7029 38.3125 27.2993 38.3125ZM31.705 27.386C32.063 27.76 32.0501 28.3534 31.6761 28.7116L26.8889 33.295C26.7078 33.4684 26.4743 33.5553 26.2406 33.5553C26.0133 33.5553 25.786 33.4731 25.6065 33.3083L22.9367 30.8564C22.5553 30.5062 22.53 29.9131 22.8803 29.5318C23.2305 29.1503 23.8236 29.1252 24.2049 29.4754L26.2273 31.3327L30.3795 27.3571C30.7534 26.9991 31.3468 27.012 31.705 27.386Z" fill="#21334F"/>
</svg>
