<svg width="120" height="24" viewBox="0 0 120 24" fill="none" xmlns="http://www.w3.org/2000/svg">
<path d="M23.25 9.45H14.6625L12 1.125L9.3375 9.45H0.75L7.6875 14.5875L5.0625 22.875L12 17.7375L18.9375 22.875L16.275 14.55L23.25 9.45Z" fill="#FFCE31"/>
<path d="M71.25 9.45H62.6625L60 1.125L57.3375 9.45H48.75L55.6875 14.5875L53.0625 22.875L60 17.7375L66.9375 22.875L64.275 14.55L71.25 9.45Z" fill="#FFCE31"/>
<path d="M47.25 9.45H38.6625L36 1.125L33.3375 9.45H24.75L31.6875 14.5875L29.0625 22.875L36 17.7375L42.9375 22.875L40.275 14.55L47.25 9.45Z" fill="#FFCE31"/>
<path d="M95.25 9.45H86.6625L84 1.125L81.3375 9.45H72.75L79.6875 14.5875L77.0625 22.875L84 17.7375L90.9375 22.875L88.275 14.55L95.25 9.45Z" fill="#FFCE31"/>
<path d="M119.25 9.45H110.662L108 1.125L105.337 9.45H96.75L103.688 14.5875L101.062 22.875L108 17.7375L114.938 22.875L112.275 14.55L119.25 9.45Z" fill="#FFCE31"/>
</svg>
