<svg width="80" height="80" viewBox="0 0 80 80" fill="none" xmlns="http://www.w3.org/2000/svg">
<path d="M40.2886 7.20728C22.0892 7.20728 7.35156 21.9778 7.35156 40.1773C7.35156 58.3767 22.0892 73.1473 40.2886 73.1473C58.521 73.1473 73.2916 58.3767 73.2916 40.1773C73.2916 21.9778 58.521 7.20728 40.2886 7.20728ZM40.3216 66.5533C25.7488 66.5533 13.9456 54.75 13.9456 40.1773C13.9456 25.6045 25.7488 13.8013 40.3216 13.8013C54.8943 13.8013 66.6976 25.6045 66.6976 40.1773C66.6976 54.75 54.8943 66.5533 40.3216 66.5533Z" fill="#E02B45"/>
<path d="M41.9699 23.6924H37.0244V43.4744L54.3337 53.8599L56.8064 49.8046L41.9699 41.0016V23.6924Z" fill="#E02B45"/>
</svg>
