<svg width="86" height="69" viewBox="0 0 86 69" fill="none" xmlns="http://www.w3.org/2000/svg">
<path d="M83.7475 47.5868H81.6227V33.2007C81.6227 31.5105 80.9455 29.8869 79.7503 28.6892L66.484 15.3943C65.2888 14.1965 63.6687 13.5178 61.9822 13.5178H56.1259V7.12988C56.1259 3.60321 53.2708 0.741943 49.7517 0.741943H15.756C12.2369 0.741943 9.38175 3.60321 9.38175 7.12988V13.5178H1.94518C1.36088 13.5178 0.882812 13.9969 0.882812 14.5825V16.7118C0.882812 17.2974 1.36088 17.7765 1.94518 17.7765H38.0657C38.65 17.7765 39.128 18.2555 39.128 18.8411V20.9704C39.128 21.556 38.65 22.0351 38.0657 22.0351H6.19465C5.61035 22.0351 5.13228 22.5142 5.13228 23.0997V25.2291C5.13228 25.8146 5.61035 26.2937 6.19465 26.2937H33.8162C34.4005 26.2937 34.8786 26.7728 34.8786 27.3584V29.4877C34.8786 30.0732 34.4005 30.5523 33.8162 30.5523H1.94518C1.36088 30.5523 0.882812 31.0314 0.882812 31.617V33.7463C0.882812 34.3319 1.36088 34.811 1.94518 34.811H29.5667C30.151 34.811 30.6291 35.2901 30.6291 35.8756V38.0049C30.6291 38.5905 30.151 39.0696 29.5667 39.0696H9.38175V56.1041C9.38175 63.1575 15.092 68.88 22.1302 68.88C29.1683 68.88 34.8786 63.1575 34.8786 56.1041H51.8764C51.8764 63.1575 57.5867 68.88 64.6248 68.88C71.663 68.88 77.3733 63.1575 77.3733 56.1041H83.7475C84.9161 56.1041 85.8722 55.1459 85.8722 53.9748V49.7162C85.8722 48.545 84.9161 47.5868 83.7475 47.5868ZM22.1302 62.492C18.6111 62.492 15.756 59.6308 15.756 56.1041C15.756 52.5774 18.6111 49.7162 22.1302 49.7162C25.6492 49.7162 28.5044 52.5774 28.5044 56.1041C28.5044 59.6308 25.6492 62.492 22.1302 62.492ZM64.6248 62.492C61.1058 62.492 58.2506 59.6308 58.2506 56.1041C58.2506 52.5774 61.1058 49.7162 64.6248 49.7162C68.1439 49.7162 70.999 52.5774 70.999 56.1041C70.999 59.6308 68.1439 62.492 64.6248 62.492ZM75.2485 34.811H56.1259V19.9058H61.9822L75.2485 33.2007V34.811Z" fill="#E02B45"/>
</svg>
