<svg width="24" height="24" viewBox="0 0 24 24" fill="none" xmlns="http://www.w3.org/2000/svg">
<path opacity="0.01" d="M0 0H24V24H0" fill="white"/>
<path d="M8.08031 19.9998C11.0677 20.0998 13.9686 18.9874 16.1232 16.9156C18.2778 14.8439 19.5031 11.9888 19.5203 8.9998C20.198 8.16121 20.7011 7.19563 21.0003 6.1598C21.0459 5.99263 20.9892 5.81425 20.8553 5.70417C20.7215 5.59408 20.5355 5.5728 20.3803 5.6498C19.6534 5.99973 18.7842 5.84682 18.2203 5.2698C17.5111 4.49313 16.5175 4.03676 15.4663 4.00474C14.415 3.97271 13.3955 4.36775 12.6403 5.0998C11.5993 6.108 11.1628 7.58807 11.4903 8.9998C8.14031 9.1998 5.84031 7.6098 4.00031 5.4298C3.88736 5.30189 3.70946 5.25287 3.54693 5.30488C3.38441 5.35689 3.26802 5.50008 3.25031 5.6698C2.53242 9.65196 4.36717 13.6605 7.85031 15.7198C6.70994 17.0276 5.10852 17.8445 3.38031 17.9998C3.19049 18.0313 3.04168 18.18 3.01005 18.3698C2.97842 18.5596 3.07096 18.7485 3.24031 18.8398C4.74383 19.5912 6.39954 19.988 8.08031 19.9998" fill="white"/>
</svg>
