<svg width="69" height="69" viewBox="0 0 69 69" fill="none" xmlns="http://www.w3.org/2000/svg">
<path d="M34.322 0.101562C15.469 0.101562 0.130859 15.4397 0.130859 34.2927C0.130859 53.1457 15.469 68.4838 34.322 68.4838C53.175 68.4838 68.5131 53.1457 68.5131 34.2927C68.5131 15.4397 53.175 0.101562 34.322 0.101562ZM6.96908 34.2927C6.96908 31.2189 7.50247 28.2682 8.44272 25.509L13.8073 30.8736L20.6455 37.7118V44.55L27.4838 51.3882L30.9029 54.8074V61.4097C17.435 59.7172 6.96908 48.2153 6.96908 34.2927ZM55.965 50.954C53.7323 49.1556 50.3474 47.9691 47.9984 47.9691V44.55C47.9984 42.7364 47.278 40.9971 45.9956 39.7147C44.7131 38.4323 42.9738 37.7118 41.1602 37.7118H27.4838V27.4545C29.2974 27.4545 31.0367 26.734 32.3191 25.4516C33.6015 24.1692 34.322 22.4298 34.322 20.6162V17.1971H37.7411C39.5547 17.1971 41.294 16.4767 42.5765 15.1943C43.8589 13.9118 44.5793 12.1725 44.5793 10.3589V8.95365C54.5905 13.019 61.6749 22.8387 61.6749 34.2927C61.6743 40.3264 59.6654 46.1883 55.965 50.954Z" fill="#E02B45"/>
</svg>
