<svg width="22" height="19" viewBox="0 0 22 19" fill="none" xmlns="http://www.w3.org/2000/svg">
<path d="M18.7887 11.625L17.7125 7.875H15.125V11.25C15.125 11.7473 14.9275 12.2242 14.5758 12.5758C14.2242 12.9275 13.7473 13.125 13.25 13.125H12.5V12.375C12.4993 12.006 12.4208 11.6412 12.2696 11.3046C12.1184 10.9679 11.8979 10.6669 11.6225 10.4213C11.9161 10.3202 12.1642 10.1181 12.3225 9.85107C12.4808 9.584 12.539 9.26935 12.4867 8.96332C12.4344 8.6573 12.2751 8.37982 12.0371 8.18046C11.7991 7.98109 11.498 7.87283 11.1875 7.875H5.9375C5.64594 7.87415 5.36245 7.97069 5.132 8.14928C4.90154 8.32788 4.73733 8.57832 4.6654 8.86087C4.59347 9.14342 4.61795 9.44189 4.73495 9.70894C4.85195 9.976 5.05478 10.1963 5.31125 10.335C4.53701 10.7525 3.89015 11.3717 3.43924 12.1269C2.98833 12.8822 2.75017 13.7454 2.75 14.625C2.75 14.7245 2.78951 14.8198 2.85984 14.8902C2.93016 14.9605 3.02554 15 3.125 15H3.875C3.875 15.8951 4.23058 16.7535 4.86351 17.3865C5.49645 18.0194 6.35489 18.375 7.25 18.375C8.14511 18.375 9.00355 18.0194 9.63649 17.3865C10.2694 16.7535 10.625 15.8951 10.625 15H15.125C15.1274 15.6547 15.3202 16.2945 15.6798 16.8416C16.0394 17.3886 16.5504 17.8193 17.1504 18.0811C17.7505 18.3428 18.4138 18.4245 19.0594 18.3159C19.705 18.2074 20.3051 17.9135 20.7866 17.4699C21.2682 17.0264 21.6103 16.4523 21.7713 15.8178C21.9323 15.1832 21.9053 14.5155 21.6936 13.896C21.4818 13.2765 21.0945 12.732 20.5787 12.3288C20.0629 11.9255 19.441 11.681 18.7887 11.625ZM7.25 16.5C6.95333 16.5 6.66332 16.412 6.41665 16.2472C6.16997 16.0824 5.97771 15.8481 5.86418 15.574C5.75065 15.2999 5.72094 14.9983 5.77882 14.7074C5.8367 14.4164 5.97956 14.1491 6.18934 13.9393C6.39912 13.7296 6.66639 13.5867 6.95736 13.5288C7.24834 13.4709 7.54994 13.5006 7.82403 13.6142C8.09811 13.7277 8.33238 13.92 8.4972 14.1666C8.66203 14.4133 8.75 14.7033 8.75 15C8.75 15.3978 8.59196 15.7794 8.31066 16.0607C8.02936 16.342 7.64782 16.5 7.25 16.5ZM18.5 16.5C18.2033 16.5 17.9133 16.412 17.6666 16.2472C17.42 16.0824 17.2277 15.8481 17.1142 15.574C17.0006 15.2999 16.9709 14.9983 17.0288 14.7074C17.0867 14.4164 17.2296 14.1491 17.4393 13.9393C17.6491 13.7296 17.9164 13.5867 18.2074 13.5288C18.4983 13.4709 18.7999 13.5006 19.074 13.6142C19.3481 13.7277 19.5824 13.92 19.7472 14.1666C19.912 14.4133 20 14.7033 20 15C20 15.3978 19.842 15.7794 19.5607 16.0607C19.2794 16.342 18.8978 16.5 18.5 16.5ZM15.125 3.75V6.75C15.125 6.84946 15.1645 6.94484 15.2348 7.01517C15.3052 7.08549 15.4005 7.125 15.5 7.125H18.125C18.4234 7.125 18.7095 7.00647 18.9205 6.7955C19.1315 6.58452 19.25 6.29837 19.25 6V4.5C19.25 4.20163 19.1315 3.91548 18.9205 3.7045C18.7095 3.49353 18.4234 3.375 18.125 3.375H15.5C15.4005 3.375 15.3052 3.41451 15.2348 3.48483C15.1645 3.55516 15.125 3.65054 15.125 3.75ZM10.625 6.75V0.75C10.625 0.650544 10.5855 0.555161 10.5152 0.484835C10.4448 0.414509 10.3495 0.375 10.25 0.375H0.5C0.400544 0.375 0.305161 0.414509 0.234835 0.484835C0.164509 0.555161 0.125 0.650544 0.125 0.75V6.75C0.125 6.84946 0.164509 6.94484 0.234835 7.01517C0.305161 7.08549 0.400544 7.125 0.5 7.125H10.25C10.3495 7.125 10.4448 7.08549 10.5152 7.01517C10.5855 6.94484 10.625 6.84946 10.625 6.75ZM5 2.2725V1.875C5 1.77554 5.03951 1.68016 5.10983 1.60984C5.18016 1.53951 5.27554 1.5 5.375 1.5C5.47446 1.5 5.56984 1.53951 5.64017 1.60984C5.71049 1.68016 5.75 1.77554 5.75 1.875V2.2725C6.34763 2.34441 6.90943 2.59577 7.36131 2.99343C7.81319 3.39108 8.13394 3.91637 8.28125 4.5H2.46875C2.61606 3.91637 2.93681 3.39108 3.38869 2.99343C3.84057 2.59577 4.40237 2.34441 5 2.2725ZM9.125 6H1.625V5.25H9.125V6Z" fill="white"/>
</svg>
