<svg width="24" height="13" viewBox="0 0 24 13" fill="none" xmlns="http://www.w3.org/2000/svg">
<path d="M22.9349 3.09968L14.6149 0.82968C13.2449 0.457836 11.7845 0.626075 10.5349 1.29968L6.87492 3.29968L1.54492 4.29968C1.14882 4.29967 0.7688 4.45633 0.487782 4.73548C0.206763 5.01462 0.0475625 5.39359 0.0449219 5.78968L0.0449219 8.78968C0.0449219 9.1875 0.202957 9.56904 0.484262 9.85034C0.765566 10.1316 1.1471 10.2897 1.54492 10.2897H2.54492C2.64321 10.8697 2.94366 11.3961 3.39303 11.7758C3.8424 12.1554 4.41166 12.3637 4.99992 12.3637C5.58818 12.3637 6.15744 12.1554 6.60681 11.7758C7.05618 11.3961 7.35664 10.8697 7.45492 10.2897H16.5449C16.6432 10.8697 16.9437 11.3961 17.393 11.7758C17.8424 12.1554 18.4117 12.3637 18.9999 12.3637C19.5882 12.3637 20.1574 12.1554 20.6068 11.7758C21.0562 11.3961 21.3566 10.8697 21.4549 10.2897H22.4549C22.8527 10.2897 23.2343 10.1316 23.5156 9.85034C23.7969 9.56904 23.9549 9.1875 23.9549 8.78968V4.49968C23.9505 4.18949 23.8501 3.8883 23.6674 3.63757C23.4848 3.38684 23.2288 3.19892 22.9349 3.09968ZM18.0449 2.80968V3.28968H17.3449L16.9549 2.49968L18.0449 2.80968ZM11.0449 2.18968C12.0069 1.67633 13.1218 1.52721 14.1849 1.76968H14.3849H14.5549L15.6949 2.07968L16.2549 3.20968H9.04492L11.0449 2.18968ZM5.04492 11.3597C4.74825 11.3597 4.45824 11.2717 4.21157 11.1069C3.96489 10.9421 3.77263 10.7078 3.6591 10.4337C3.54557 10.1596 3.51587 9.85802 3.57374 9.56704C3.63162 9.27607 3.77448 9.0088 3.98426 8.79902C4.19404 8.58924 4.46132 8.44638 4.75229 8.3885C5.04326 8.33062 5.34486 8.36033 5.61895 8.47386C5.89304 8.58739 6.1273 8.77965 6.29213 9.02632C6.45695 9.273 6.54492 9.56301 6.54492 9.85968C6.54492 10.2575 6.38689 10.639 6.10558 10.9203C5.82428 11.2016 5.44275 11.3597 5.04492 11.3597ZM19.0449 11.3597C18.7482 11.3597 18.4582 11.2717 18.2116 11.1069C17.9649 10.9421 17.7726 10.7078 17.6591 10.4337C17.5456 10.1596 17.5159 9.85802 17.5737 9.56704C17.6316 9.27607 17.7745 9.0088 17.9843 8.79902C18.194 8.58924 18.4613 8.44638 18.7523 8.3885C19.0433 8.33062 19.3449 8.36033 19.6189 8.47386C19.893 8.58739 20.1273 8.77965 20.2921 9.02632C20.4569 9.273 20.5449 9.56301 20.5449 9.85968C20.5449 10.2575 20.3869 10.639 20.1056 10.9203C19.8243 11.2016 19.4427 11.3597 19.0449 11.3597ZM23.0449 6.28968H22.5449C22.4123 6.28968 22.2851 6.34236 22.1914 6.43613C22.0976 6.52989 22.0449 6.65707 22.0449 6.78968C22.0449 6.92229 22.0976 7.04947 22.1914 7.14323C22.2851 7.237 22.4123 7.28968 22.5449 7.28968H23.0449V8.78968C23.0449 8.92229 22.9922 9.04947 22.8985 9.14323C22.8047 9.237 22.6775 9.28968 22.5449 9.28968H21.4749C21.3473 8.74222 21.0382 8.25405 20.5979 7.90458C20.1576 7.55511 19.6121 7.3649 19.0499 7.3649C18.4878 7.3649 17.9422 7.55511 17.5019 7.90458C17.0616 8.25405 16.7525 8.74222 16.6249 9.28968H7.47492C7.34732 8.74222 7.03823 8.25405 6.59794 7.90458C6.15764 7.55511 5.61205 7.3649 5.04992 7.3649C4.48779 7.3649 3.9422 7.55511 3.50191 7.90458C3.06161 8.25405 2.75252 8.74222 2.62492 9.28968H1.54492C1.41231 9.28968 1.28514 9.237 1.19137 9.14323C1.0976 9.04947 1.04492 8.92229 1.04492 8.78968V7.28968H1.54492C1.67753 7.28968 1.80471 7.237 1.89848 7.14323C1.99224 7.04947 2.04492 6.92229 2.04492 6.78968C2.04492 6.65707 1.99224 6.52989 1.89848 6.43613C1.80471 6.34236 1.67753 6.28968 1.54492 6.28968H1.04492V5.78968C1.04865 5.71691 1.06706 5.64565 1.09905 5.58019C1.13105 5.51473 1.17596 5.45641 1.23108 5.40876C1.2862 5.36112 1.3504 5.32512 1.4198 5.30293C1.48921 5.28075 1.56238 5.27284 1.63492 5.27968L7.04492 4.28968H18.5449C18.6775 4.28968 18.8047 4.237 18.8985 4.14323C18.9922 4.04947 19.0449 3.92229 19.0449 3.78968V3.07968L22.6749 4.07968C22.7715 4.1048 22.8583 4.15821 22.9242 4.23305C22.9901 4.3079 23.0322 4.40075 23.0449 4.49968V6.28968ZM15.5449 7.28968H8.54492C8.41231 7.28968 8.28514 7.34236 8.19137 7.43613C8.0976 7.52989 8.04492 7.65707 8.04492 7.78968C8.04492 7.92229 8.0976 8.04947 8.19137 8.14323C8.28514 8.237 8.41231 8.28968 8.54492 8.28968H15.5449C15.6775 8.28968 15.8047 8.237 15.8985 8.14323C15.9922 8.04947 16.0449 7.92229 16.0449 7.78968C16.0449 7.65707 15.9922 7.52989 15.8985 7.43613C15.8047 7.34236 15.6775 7.28968 15.5449 7.28968Z" fill="#21334F"/>
</svg>
